<?xml version="1.0" encoding="utf-8"?>
<!-- Generator: Adobe Illustrator 16.0.0, SVG Export Plug-In . SVG Version: 6.00 Build 0)  -->
<!DOCTYPE svg PUBLIC "-//W3C//DTD SVG 1.1//EN" "http://www.w3.org/Graphics/SVG/1.1/DTD/svg11.dtd">
<svg version="1.1" xmlns="http://www.w3.org/2000/svg" xmlns:xlink="http://www.w3.org/1999/xlink" x="0px" y="0px"
	 width="79.333px" height="63.333px" viewBox="0 0 79.333 63.333" enable-background="new 0 0 79.333 63.333" xml:space="preserve">
<g id="頁面七">
	<g id="底圖_6_">
	</g>
	<g id="標題二">
	</g>
	<g id="標題一">
		<g id="文字_1_">
		</g>
	</g>
	<g id="綜合結論">
	</g>
</g>
<g id="頁面六">
	<g id="底圖_5_">
	</g>
	<g id="文字">
	</g>
	<g id="標題_4_">
	</g>
</g>
<g id="頁面五">
	<g id="底圖_4_">
	</g>
	<g id="標題_3_">
	</g>
</g>
<g id="頁面四">
	<g id="底圖_3_">
	</g>
	<g id="副標題2_1_">
	</g>
	<g id="副標題1_1_">
	</g>
	<g id="標題_2_">
	</g>
</g>
<g id="頁面三">
	<g id="底圖_2_">
	</g>
	<g id="底圖上方圖片">
	</g>
	<g id="副標題2">
	</g>
	<g id="副標題1">
	</g>
	<g id="標題_1_">
		<g>
			<g>
				<g>
					<path fill="none" d="M74.229,56.709c0,0,0-2.807,0-7.72c0-2.456,0-5.438,0-8.86c0-0.428,0-0.862,0-1.303
						c0.014-0.169-0.034-0.584-0.081-0.899c-0.038-0.338-0.202-0.637-0.319-0.953c-0.606-1.209-1.735-1.945-2.904-2.294
						c-0.573-0.182-1.253-0.232-1.786-0.241c-0.492,0-0.99,0-1.493,0c-1.008,0-2.039,0-3.092,0c-8.421,0-18.246,0-28.772,0
						c-5.264,0-10.702,0-16.229,0c-2.764,0-5.549,0-8.345,0h-2.1H8.057c-0.426,0.041-0.884,0.024-1.315,0.158
						c-0.875,0.181-1.727,0.611-2.419,1.287c-0.691,0.662-1.211,1.659-1.216,2.74c0,5.614,0,11.229,0,16.755v1.035v0.258
						c0.001,0.092,0.021,0.249,0.033,0.37c0.041,0.255,0.041,0.526,0.147,0.759c0.3,1.004,1.007,1.749,1.766,2.231
						c0.765,0.498,1.628,0.771,2.486,0.827c0.467,0.046,0.783,0.035,1.122,0.036h1.017c2.709,0,5.385,0,8.017,0
						c10.526,0,20.352,0,28.772,0c8.422,0,15.439,0,20.352,0c0.614,0,1.195,0,1.742,0c0.278-0.001,0.547-0.003,0.808-0.004
						c0.323-0.025,0.637-0.041,0.937-0.085c1.202-0.202,2.167-0.777,2.794-1.44c0.331-0.304,0.541-0.694,0.726-0.997
						c0.137-0.346,0.271-0.632,0.312-0.885C74.214,56.975,74.229,56.71,74.229,56.709h-2.455c-0.064-0.009,0.122,0.36-0.441,0.95
						c-0.266,0.29-0.76,0.614-1.449,0.727c-0.174,0.016-0.354,0.032-0.541,0.049c-0.252,0.001-0.512,0.002-0.78,0.004
						c-0.548,0-1.129,0-1.742,0c-4.913,0-11.931,0-20.353,0c-8.421,0-18.246,0-28.772,0c-2.632,0-5.308,0-8.016,0H8.661
						c-0.341,0.001-0.705,0.004-0.915-0.027c-0.5-0.024-0.979-0.191-1.357-0.441c-0.387-0.24-0.677-0.574-0.759-0.906
						c-0.058-0.078-0.021-0.168-0.046-0.249c-0.005-0.05-0.021-0.063-0.022-0.144v-0.258v-1.035c0-5.527,0-11.141,0-16.755
						c-0.004-0.655,0.713-1.439,1.729-1.634c0.24-0.089,0.499-0.055,0.766-0.096h1.051h2.099c2.797,0,5.582,0,8.345,0
						c5.527,0,10.966,0,16.229,0c10.526,0,20.352,0,28.772,0c1.053,0,2.084,0,3.091,0c0.504,0,1.002,0,1.494,0
						c0.449,0.015,0.743,0.038,1.091,0.141c0.653,0.188,1.201,0.599,1.404,1.04c0.019,0.115,0.111,0.213,0.105,0.325
						c-0.001,0.13,0.047,0.153,0.035,0.427c0,0.441,0,0.875,0,1.303c0,3.421,0,6.404,0,8.86c0,4.912,0,7.719,0,7.719L74.229,56.709z
						"/>
					<path fill-rule="evenodd" clip-rule="evenodd" fill="#B22222" d="M37.978,58.651c0.1-0.009,0.272-0.011,0.474-0.011
						C38.402,58.654,38.139,58.664,37.978,58.651z"/>
					<path fill-rule="evenodd" clip-rule="evenodd" fill="#B22222" d="M45.138,60.316c0.144-0.007,0.595-0.021,0.546,0.007
						C45.436,60.32,45.316,60.318,45.138,60.316z"/>
					<path fill-rule="evenodd" clip-rule="evenodd" fill="#B22222" d="M45.908,60.354c0.038-0.013,0.385-0.001,0.548-0.005
						C46.448,60.366,46.01,60.362,45.908,60.354z"/>
					<path fill-rule="evenodd" clip-rule="evenodd" fill="#B22222" d="M48.106,60.1c0.114-0.009,0.411-0.016,0.55-0.005
						C48.618,60.108,48.271,60.097,48.106,60.1z"/>
					<path fill-rule="evenodd" clip-rule="evenodd" fill="#B22222" d="M49.109,60.366c0.188-0.016,0.508-0.021,0.944-0.016
						C49.901,60.369,49.448,60.363,49.109,60.366z"/>
					<path fill-rule="evenodd" clip-rule="evenodd" fill="#B22222" d="M51.835,59.057c0.479-0.001,1.457-0.024,1.798,0.004
						C52.968,59.06,52.439,59.059,51.835,59.057z"/>
					<path fill-rule="evenodd" clip-rule="evenodd" fill="#B22222" d="M53.12,59.63c0.599-0.035,1.667,0.004,2.433-0.019
						c0.107,0.029-1.12,0.003-1.341,0.027c-0.163-0.004-0.31-0.008-0.464-0.013C53.536,59.627,53.34,59.647,53.12,59.63z"/>
					<path fill-rule="evenodd" clip-rule="evenodd" fill="#B22222" d="M60.442,59.717c-0.017-0.016,0.038-0.026,0.243-0.023
						c0.059,0.005,0.079,0.014,0.068,0.024L60.442,59.717z"/>
					<path fill-rule="evenodd" clip-rule="evenodd" fill="#B22222" d="M63.485,59.514c0.482-0.027,1.585-0.029,2.192-0.008
						c0.081-0.003,0.087-0.014,0.239-0.011c0.364-0.003,1.177,0.008,0.388,0.007C65.269,59.506,64.577,59.509,63.485,59.514z"/>
					<path fill-rule="evenodd" clip-rule="evenodd" fill="#B22222" d="M63.851,59.814c0.115-0.009,0.309-0.012,0.551-0.011
						C64.343,59.818,63.94,59.821,63.851,59.814z"/>
					<path fill-rule="evenodd" clip-rule="evenodd" fill="#B22222" d="M64.594,59.029c0.088-0.013,0.491-0.001,0.705-0.004
						C65.144,59.033,64.768,59.042,64.594,59.029z"/>
					<path fill-rule="evenodd" clip-rule="evenodd" fill="#B22222" d="M64.434,59.713c0.314-0.008,0.578-0.015,0.867-0.022
						C65.515,59.715,64.73,59.71,64.434,59.713z"/>
					<path fill-rule="evenodd" clip-rule="evenodd" fill="#B22222" d="M64.793,59.798c0.154-0.019,0.607-0.013,0.945-0.016
						C65.538,59.797,65.1,59.792,64.793,59.798z"/>
					<path fill-rule="evenodd" clip-rule="evenodd" fill="#B22222" d="M65.347,58.887c0.028-0.021,0.336-0.018,0.557-0.023
						C65.855,58.883,65.541,58.88,65.347,58.887z"/>
					<path fill-rule="evenodd" clip-rule="evenodd" fill="#B22222" d="M65.688,59.032c0.256-0.017,1.133-0.012,1.566-0.009
						C66.705,59.037,66.287,59.036,65.688,59.032z"/>
					<path fill-rule="evenodd" clip-rule="evenodd" fill="#B22222" d="M65.895,59.782c0.403-0.027,0.991-0.005,1.33-0.003
						C66.756,59.78,66.407,59.781,65.895,59.782z"/>
					<path fill-rule="evenodd" clip-rule="evenodd" fill="#B22222" d="M66.932,59.502c0.222-0.006,0.422-0.011,0.631-0.017
						C67.605,59.512,67.195,59.501,66.932,59.502z"/>
					<path fill-rule="evenodd" clip-rule="evenodd" fill="#B22222" d="M67.613,59.564c0.186-0.015,0.352-0.008,0.627-0.005
						C68.177,59.573,67.802,59.561,67.613,59.564z"/>
					<path fill-rule="evenodd" clip-rule="evenodd" fill="#B22222" d="M68.291,59.637c0.087-0.016,0.674-0.019,0.544,0.013
						c-0.168,0.002-0.146-0.009-0.15-0.018C68.507,59.634,68.513,59.634,68.291,59.637z"/>
					<path fill-rule="evenodd" clip-rule="evenodd" fill="#B22222" d="M69.869,59.132C69.526,59.183,68.934,59.196,69.869,59.132
						L69.869,59.132z"/>
					<path fill-rule="evenodd" clip-rule="evenodd" fill="#B22222" d="M70.539,58.753c0.234-0.127,0.494-0.197,0.736-0.382
						C71.14,58.51,70.66,58.703,70.539,58.753z"/>
					<path fill-rule="evenodd" clip-rule="evenodd" fill="#B22222" d="M70.712,58.637c-0.093,0.018,0.379-0.181,0.294-0.124
						L70.712,58.637z"/>
					<path fill-rule="evenodd" clip-rule="evenodd" fill="#B22222" d="M71.061,58.096c0.058-0.054,0.213-0.142,0.294-0.24
						C71.352,57.905,71.125,58.074,71.061,58.096z"/>
					<path fill-rule="evenodd" clip-rule="evenodd" fill="#B22222" d="M71.927,57.036C71.939,56.666,71.99,56.539,71.927,57.036
						L71.927,57.036z"/>
					<path fill-rule="evenodd" clip-rule="evenodd" fill="#B22222" d="M56.366,58.623c0.13-0.008,0.313-0.012,0.4-0.023
						c0.241,0.024,0.685,0.003,1.012,0.014C57.378,58.64,56.948,58.606,56.366,58.623z"/>
					<path fill-rule="evenodd" clip-rule="evenodd" fill="#B22222" d="M65.103,59.139c0.172,0.003,0.177,0.003,0.388,0.007
						c0.02,0.01-0.076,0.01-0.084,0.018c0.397-0.002,0.611-0.003,0.94-0.004c-0.043,0.005-0.085,0.01-0.085,0.018
						c0.441-0.033,0.956,0.019,1.876,0.003c-0.881,0.035-2.833,0.009-3.603,0.017c0.114-0.023,0.79-0.001,0.869-0.028
						C65.423,59.15,64.971,59.166,65.103,59.139z"/>
					<path fill-rule="evenodd" clip-rule="evenodd" fill="#B22222" d="M65.922,59.705c0.089-0.001,0.046-0.006,0.001-0.006
						c0.026-0.014,0.346-0.003,0.393,0C66.22,59.716,65.187,59.707,65.922,59.705z"/>
					<path fill-rule="evenodd" clip-rule="evenodd" fill="#B22222" d="M71.591,58.983l0.006,0.024
						c0.466-0.224,0.948-0.878,1.131-1.159c-0.072,0.129-0.185,0.285-0.301,0.458c-0.125,0.166-0.309,0.307-0.463,0.464
						c-0.354,0.267-0.719,0.474-0.916,0.559c-0.097,0.03-0.263,0.119-0.364,0.133c-0.657,0.232-1.396,0.242-2.116,0.232
						c-0.722,0.002-1.425,0.004-2.175,0.006c0.643-0.064,2.1,0.023,2.83-0.042c0.12,0.003,0.003,0.006-0.08,0.006
						c0.159,0.006,0.348-0.016,0.556-0.031c0.21-0.008,0.435-0.034,0.658-0.104c0.229-0.051,0.458-0.113,0.664-0.223
						C71.234,59.215,71.434,59.115,71.591,58.983z"/>
					<path fill-rule="evenodd" clip-rule="evenodd" fill="#B22222" d="M70.821,58.538c0.092-0.04,0.243-0.124,0.319-0.2
						C71.188,58.308,70.959,58.519,70.821,58.538z"/>
					<path fill-rule="evenodd" clip-rule="evenodd" fill="#B22222" d="M71.449,37.792c0.05,0.086,0.112,0.167,0.185,0.248
						c0.031,0.092,0.07,0.18,0.114,0.267c0.019,0.108,0.015,0.21,0.043,0.312l-0.006,0.611c0,0.414-0.001,0.807-0.001,1.252
						c0.016,0.727,0.033,1.544,0.049,2.286c0.011,0.563,0.015,0.784,0.022,1.181c0.021,1.158,0.01,2.106,0.072,2.606
						c0.036,0.894,0.07,1.731,0.103,2.539c0.002,0.156,0.005,0.333,0.005,0.393c0.096,1.807,0.252,2.913,0.32,5.039
						c0.035,0.185,0.086,0.309,0.131,0.671c0.02,0.161,0.032,0.527,0.053,0.645c0.074,0.433,0.17,0.052,0.226,0.86
						c0.02,0.044,0.024-0.103,0.037-0.143c0.148,0.023,0.274-0.297,0.39-0.099c0.068-0.555,0.147-0.434,0.212-0.864
						c0.04-0.267,0.078-0.791,0.116-1.132c0.044-0.403,0.08-0.732,0.123-1.131c0.045,0.003,0.053-0.497,0.091-0.593
						c0.031-0.553,0.063-1.138,0.094-1.688c0.015-0.06,0.024-0.207,0.042-0.22c0.077-1.299,0.172-2.61,0.201-4.388
						c0.002-0.165,0.006-0.506,0.008-0.701c-0.002-1.319,0.014-3.351,0.074-4.041c-0.002-0.238-0.002-0.234-0.005-0.471
						c0.028-0.15,0.083-0.85,0.081-1.458c-0.007-0.154-0.03-0.68-0.046-1.033c0.006-0.142-0.037-0.472-0.063-0.694
						c-0.017-0.252-0.09-0.48-0.176-0.704c-0.138-0.468-0.41-0.83-0.671-1.18c-0.279-0.267-0.584-0.56-0.922-0.744
						c-0.213-0.141-0.481-0.313-0.799-0.432c-0.309-0.152-0.657-0.255-1.007-0.331c-0.701-0.165-1.413-0.155-1.682-0.164
						c-0.509-0.01-0.699-0.038-1.084-0.032c-0.348,0.005-0.61,0.037-0.576,0.083c-1,0.102-3.571,0.023-5.108,0.067
						c-1.13-0.036-2.209,0.024-3.29,0.018c-0.202-0.004-0.492-0.01-0.699-0.014c-0.342,0.007-0.881,0.018-1.34,0.027
						c-0.827,0.01-1.478,0.017-2.197,0.025c-1.036-0.06-1.794,0.009-2.662,0.007c-0.301-0.006-0.674-0.014-1.011-0.02
						c-0.289,0.005-0.624,0.01-0.942,0.016c-0.312-0.006-0.711-0.014-1.011-0.02c-0.227,0.004-0.443,0.008-0.63,0.011
						c-0.24-0.004-0.442-0.008-0.698-0.013c-0.245,0.008-0.624,0.02-0.871,0.028c-1.064,0.009-2.214-0.015-3.217,0.029
						c-1.939-0.006-3.283-0.01-5.547-0.018c-0.535,0.012-0.929,0.021-1.488,0.009c-0.125,0.004-0.124,0.019-0.32,0.018
						c-1.152,0.003-2.234,0.007-3.444,0.011c-0.041,0.007-0.088,0.014-0.163,0.018c-1.589-0.029-3.601-0.033-4.85,0.002
						c-0.968-0.03-2.094,0.004-3.287,0.005c-0.554-0.003-1.104-0.006-1.639-0.009c-1.058,0.001-2.365,0.003-3.364,0.005
						c-0.265,0.006-0.61,0.015-0.869,0.022c-0.528-0.001-1.061-0.002-1.641-0.003c-2.147,0.034-4.615,0.011-6.496,0.011
						c-0.554,0.008-1.095,0.017-1.729,0.026c-0.282,0.009-0.513-0.01-0.844,0.015c-0.322,0.034-0.652,0.02-0.972,0.116
						c-0.322,0.071-0.644,0.149-0.946,0.298c-0.313,0.114-0.6,0.297-0.875,0.491c-0.288,0.175-0.499,0.46-0.728,0.674
						c-0.532,0.626-0.862,1.51-0.858,2.358c0.002,1.675,0.035,3.356,0.008,4.931c0.039,2.012,0.026,4.946,0.033,7.285
						c0.032,0.525,0.004,1.026,0.008,1.567c0.009,0.83,0.018,1.794,0.027,2.751c0.003,0.487,0.006,0.97,0.008,1.443
						c0.033,0.626,0.199,1.234,0.506,1.707c0.644,1.003,1.677,1.598,2.731,1.846c0.265,0.078,0.534,0.112,0.806,0.124
						c0.28,0.026,0.541,0.037,0.76,0.03l1.4-0.006c1.87-0.005,3.747-0.01,5.621-0.016c3.735-0.018,7.45-0.035,11.133-0.052
						c0.57,0.025,1.456,0.009,1.958-0.008c0.107,0.016,0.442,0.015,0.697,0.02c0.913-0.04,2.062-0.007,3.213-0.017
						c0.293-0.039,0.986-0.01,1.421-0.039c0.187,0.021-0.25,0.018,0.067,0.03c0.746-0.07,3.27-0.038,4.4-0.057
						c-0.078,0-0.095-0.011,0.004-0.012c0.274,0.018,0.403-0.018,0.71-0.017c2.056-0.008,3.522-0.078,5.276-0.103
						c0.22,0.01,0.808,0.04,1.012,0.014c-0.317-0.004-0.719-0.002-0.692-0.032c0.527,0.01,1.221-0.003,1.573-0.027
						c0.651-0.002,0.984,0.013,1.567-0.009c0.143,0-0.139-0.03,0.167-0.029c0.953,0.002,1.328,0.002,2.188,0.004
						c0.237-0.028,1.198-0.036,1.493-0.021c0.267-0.012-0.294-0.023-0.067-0.03c0.741-0.008,1.431-0.02,2.112-0.001
						c0.17-0.013,0.281-0.031,0.561-0.035c0.188-0.002-0.054,0.027,0.228,0.018c0.264-0.016-0.204-0.027-0.14-0.048
						c0.37-0.01,0.298-0.024,0.483-0.041c0.517,0.017,0.87-0.017,1.34-0.027c0.52-0.003,0.996-0.006,1.489-0.009
						c0.4-0.007,0.572-0.028,1.026-0.028c0.343,0.006,0.707,0.013,1.088,0.021c0.217-0.005-0.145-0.022,0.164-0.024
						c1.436-0.007,2.87-0.014,3.93-0.052c-1.626,0.047-2.813-0.003-4.237,0.039c-0.215-0.027-0.64,0.017-0.854-0.02
						c-0.097,0.016,0.232,0.026-0.087,0.024c-0.101-0.002-0.161-0.003-0.311-0.007c0.202-0.032-0.1-0.032-0.216-0.055
						c-1.207,0.007-2.168,0.012-3.212,0.018c-0.195,0.008,0.135,0.019-0.087,0.024c-0.408,0.003-0.68,0.005-1.177,0.01
						c-0.142-0.024-0.458-0.036-0.289-0.067c1.386-0.014,3.371-0.033,5.022-0.05c0.511-0.001,1.04,0.023,1.335-0.015
						c-0.756,0.012-1.365-0.03-2.022-0.034c-0.832,0.008-1.766,0.017-2.589,0.025c-0.213-0.005-0.354-0.009-0.542-0.013
						c-0.145,0.004-0.47,0.012-0.633,0.017c-0.164-0.005-0.245-0.008-0.387-0.013c-0.327,0.007-0.664,0.014-1.023,0.022
						c-0.646-0.005-1.304-0.011-2.028-0.016c-0.132-0.011-0.073-0.038,0.093-0.042c0.857-0.001,1.002-0.001,1.879-0.002
						c-0.099-0.003-0.158-0.008-0.15-0.019c0.27,0.002,0.365,0.009,0.55-0.005c-0.65,0.001-0.592-0.045-0.369-0.067
						c1.62,0.001,3.555,0.003,4.927,0.004c0.146-0.013,0.241-0.03,0.481-0.035c1.521-0.004,3.151-0.009,4.775-0.014
						c-1.83-0.036-3.741-0.015-5.866,0c-0.081-0.006-0.016-0.022-0.228-0.019c-0.955,0.006-1.961,0.014-2.666,0.019
						c-0.3-0.026-0.604-0.053-0.911-0.08c-2.229,0.022-3.858-0.084-5.992-0.084c0.01-0.018-0.156-0.023-0.222-0.036
						c0.157-0.016,0.337-0.033,0.485-0.047c0.35-0.001,0.708-0.011,1.017,0.002c1.798-0.054,4.351-0.016,6.586-0.046
						c0.272-0.03,0.059-0.053-0.13-0.079c-1.077-0.017-2.061,0.025-3.201-0.013c-0.408-0.071,0.021-0.12,0.902-0.124
						c1.463,0.003,3.961,0.008,4.925,0.01c2.17-0.011,4.286-0.021,6.423-0.032c1.073-0.003,2.149-0.005,3.233-0.008
						c0.54-0.002,1.083-0.004,1.629-0.007c0.264-0.006,0.564,0.007,0.799-0.014c0.228-0.037,0.469-0.01,0.687-0.088
						c-0.244,0.076-0.509,0.049-0.758,0.086c-0.298,0.001-0.592,0.002-0.885,0.003c-0.588,0.002-1.168,0.004-1.739,0.006
						c-1.141-0.002-2.228-0.004-3.346-0.006c0.009,0.013-0.071,0.019-0.24,0.018c-2.144,0.005-4.487,0.012-6.42,0.017
						c-0.79-0.043-2.316,0.007-3.115-0.037c0.199-0.068,0.856-0.099,1.682-0.116c-0.827-0.008-1.641-0.016-2.337-0.023
						c-0.58-0.003-1.585,0.017-1.879,0.002c-0.07-0.003,0.065-0.017-0.07-0.018c0.237,0.001-0.424,0.004-0.473,0.005
						c-0.316,0.008-0.258,0.013-0.629,0.011c-0.48-0.002-0.472-0.003-0.774-0.02c-1.673-0.001-3.25-0.002-4.926-0.004
						c-0.175,0-0.518-0.001-0.548-0.001c-0.156-0.004-0.022-0.017-0.229-0.019c-0.117-0.001-0.065,0.013-0.238,0.011
						c-0.65-0.003-1.387-0.007-2.029-0.01c-1.617-0.003-3.527-0.007-4.846-0.01c-0.294-0.004,0.093-0.025-0.305-0.024
						c-2.279-0.011-4.681-0.021-7.105-0.033c-0.184-0.002-0.037-0.029-0.306-0.025c-0.335-0.004-0.253,0.025-0.555,0.023
						c-0.188-0.008-0.358-0.017-0.458-0.031c-2.813,0.004-5.657,0.008-8.529,0.012c-2.683,0.005-5.362,0.009-7.905,0.014
						c-0.998,0.005-1.981,0.01-2.936,0.014c-0.826,0.006-1.518-0.187-2.063-0.582c-0.354-0.252-0.639-0.563-0.742-0.9
						c-0.098-0.16-0.069-0.335-0.114-0.501c-0.002-0.275-0.004-0.547-0.006-0.818c-0.002-1.102-0.003-2.184-0.005-3.309
						c-0.001-1.621-0.001-3.384-0.002-4.772c-0.005-0.22-0.012-0.537-0.017-0.789c0.007-0.39,0.014-0.854,0.021-1.243
						c-0.008-1.104-0.016-2.271-0.022-3.371c0.002-1.248,0.005-2.449,0.007-3.674c0.018-0.52,0.133-0.863,0.458-1.253
						c0.224-0.233,0.516-0.444,0.85-0.588c0.456-0.246,0.984-0.301,1.535-0.34c0.664-0.003,1.309-0.006,1.932-0.008
						c1.671,0.007,3.388,0.033,5.083,0.004c1.894,0.002,4.14,0.004,5.94,0.006c1.454,0.048,2.967-0.001,4.612,0.01
						c0.152,0.004,0.306,0.008,0.464,0.013c2.572,0.001,5.173,0.002,7.273,0.003c0.757-0.031,1.404,0.003,2.108,0.011
						c0.766-0.005,1.473-0.009,2.195-0.014c0.222,0.004,0.473,0.009,0.698,0.013c0.731-0.006,1.472-0.012,2.275-0.019
						c1.217-0.006,2.511,0.046,3.905,0.014c1.076,0.022,2.672,0.048,3.904,0.02c2.083,0.045,4.188-0.007,6.329,0.013
						c0.723,0.007,1.38,0.039,2.108,0.01c0.755,0.032,1.656,0.014,2.576,0.018c0.892,0.009,1.865,0.02,2.805,0.03
						c1.354,0.01,3.035-0.016,4.049,0.05c0.462,0.137,1.359-0.064,2.438-0.037c0.576,0.026,0.506,0.065,0.684,0.133
						c0.38,0.038,0.733,0.098,1.063,0.228c0.077,0.038,0.165,0.081,0.264,0.129c0.067,0.055,0.141,0.114,0.213,0.173
						C71.18,37.471,71.281,37.631,71.449,37.792z M51.615,59.909c-0.016,0.007,0.014,0.011,0.075,0.012
						C51.522,59.95,51.154,59.908,51.615,59.909z M51.777,59.897c0.65-0.002,1.563-0.029,2.036-0.008
						c0.126,0-0.114-0.034,0.092-0.042c0.277,0.015,0.606,0.026,1.086,0.026c0.03,0.05-0.919,0.02-0.961,0.064
						c-0.366-0.004-0.546-0.006-0.71,0.017c-0.794-0.001-0.846-0.002-1.485-0.003C51.985,59.923,51.733,59.93,51.777,59.897z"/>
				</g>
			</g>
		</g>
		<g>
			
				<text transform="matrix(0.9602 0 0 1 6.4297 52.2104)" fill="#103E55" font-family="'DFXingShu-W5-WIN-BF'" font-size="18" letter-spacing="-2.083">跑對時間</text>
		</g>
		<g>
			
				<text transform="matrix(0.9602 0 0 1 -1.1973 23.2104)" fill="#103E55" font-family="'DFXingShu-W5-WIN-BF'" font-size="24" letter-spacing="-3.124">空氣品質</text>
		</g>
	</g>
</g>
<g id="頁面二">
	<g id="底圖_1_">
	</g>
</g>
<g id="頁面一_x28_晚上_x29_">
	<g id="底圖">
	</g>
	<g id="標題">
	</g>
	<g id="小人">
	</g>
	<g id="組">
	</g>
	<g id="路燈_x28_暗_x29_">
	</g>
	<g id="路燈_x28_半亮_x29_">
	</g>
	<g id="路燈_x28_亮_x29_">
	</g>
	<g id="下方圖片">
	</g>
	<g id="下方文字">
	</g>
</g>
<g id="文字說明">
</g>
<g id="頁面一_x28_白天_x29_" display="none">
	<g id="底圖_拷貝" display="inline">
	</g>
	<g id="標題_拷貝" display="inline">
	</g>
	<g id="小人_拷貝" display="inline">
	</g>
	<g id="組_拷貝" display="inline">
	</g>
	<g id="下方圖片_拷貝" display="inline">
	</g>
	<g id="下方文字_拷貝" display="inline">
	</g>
</g>
<g id="圖層_3" display="none">
</g>
</svg>
