<?xml version="1.0" encoding="utf-8"?>
<!-- Generator: Adobe Illustrator 16.0.0, SVG Export Plug-In . SVG Version: 6.00 Build 0)  -->
<!DOCTYPE svg PUBLIC "-//W3C//DTD SVG 1.1//EN" "http://www.w3.org/Graphics/SVG/1.1/DTD/svg11.dtd">
<svg version="1.1" id="圖層_1" xmlns="http://www.w3.org/2000/svg" xmlns:xlink="http://www.w3.org/1999/xlink" x="0px" y="0px"
	 width="65.334px" height="251px" viewBox="0 0 65.334 251" enable-background="new 0 0 65.334 251" xml:space="preserve">
<g id="頁面七">
	<g id="底圖_6_">
	</g>
	<g id="標題二">
	</g>
	<g id="標題一">
		<g id="文字_1_">
		</g>
	</g>
	<g id="綜合結論">
	</g>
</g>
<g id="頁面六">
	<g id="底圖_5_">
	</g>
	<g id="文字">
	</g>
	<g id="標題_4_">
	</g>
</g>
<g id="頁面五">
	<g id="底圖_4_">
	</g>
	<g id="標題_3_">
	</g>
</g>
<g id="頁面四">
	<g id="底圖_3_">
	</g>
	<g id="副標題2_1_">
	</g>
	<g id="副標題1_1_">
	</g>
	<g id="標題_2_">
	</g>
</g>
<g id="頁面三">
	<g id="底圖_2_">
	</g>
	<g id="底圖上方圖片">
	</g>
	<g id="副標題2">
	</g>
	<g id="副標題1">
	</g>
	<g id="標題_1_">
	</g>
</g>
<g id="頁面二">
	<g id="底圖_1_">
	</g>
</g>
<g id="頁面一_x28_晚上_x29_">
	<g id="底圖">
	</g>
	<g id="標題">
	</g>
	<g id="小人">
	</g>
	<g id="組">
	</g>
	<g id="路燈_x28_暗_x29_">
		<path fill="#1D2935" d="M60.431,24.72c-0.978-1.72-3.158-1.301-3.3-2.557c-0.139-1.254-0.046-2.555-0.046-2.555
			s1.255-0.465,1.255-1.719c0-1.068-1.241-1.388-2.026-1.388c-0.818,0-2.026,0.32-2.026,1.388c0,1.254,1.254,1.719,1.254,1.719
			s0.094,1.301-0.046,2.555c-0.139,1.255-2.323,0.837-3.299,2.557c-0.977,1.719-1.067,4.135,1.394,6.226
			c2.464,2.091,2.185,2.881,2.231,3.811c0.046,0.929,0,1.487,0,1.487l0.428,0.035v0.011l0.064-0.006l0.064,0.006v-0.011l0.428-0.035
			c0,0-0.046-0.558,0-1.487c0.047-0.93-0.231-1.72,2.229-3.811C61.498,28.855,61.405,26.439,60.431,24.72"/>
		<path fill="#ADA371" d="M4.676,109.501c0-9.189,10.697-16.638,23.893-16.638s23.892,7.449,23.892,16.638"/>
		<path fill="#ADA371" d="M52.46,109.501c0,9.188-10.695,16.638-23.892,16.638c-13.196,0-23.892-7.449-23.892-16.638"/>
		<path fill="none" d="M4.676,109.501c0,9.189,10.697,16.638,23.891,16.638c13.198,0,23.894-7.449,23.894-16.638
			c0-9.188-10.696-16.637-23.894-16.637C15.373,92.864,4.676,100.313,4.676,109.501"/>
		<path fill="none" stroke="#1D2935" stroke-width="2" stroke-linecap="round" stroke-miterlimit="10" d="M4.676,109.501
			c0-9.189,10.697-16.638,23.893-16.638s23.892,7.449,23.892,16.638c0,9.188-10.696,16.638-23.892,16.638
			S4.676,118.69,4.676,109.501"/>
		<path fill="none" stroke="#1D2935" stroke-linecap="round" stroke-miterlimit="10" d="M22.011,97.437
			c0.454-1.265,1.725-2.192,3.069-2.235c0.708-0.023,1.473,0.221,1.868,0.809c0.354,0.53,0.441,1.286,0.196,1.874
			c-0.262,0.622-0.958,1.131-1.629,1.072c-0.33-0.03-0.664-0.156-0.886-0.461c-0.162-0.221-0.307-0.582-0.18-0.931
			c0.124-0.347,0.652-0.722,1.026-0.375"/>
		<path fill="none" stroke="#1D2935" stroke-linecap="round" stroke-miterlimit="10" d="M28.338,100.232
			c-0.423-0.911-1.513-1.457-2.497-1.249c-0.981,0.208-1.749,1.05-1.768,2.055c-0.002,0.184,0.015,0.487,0.098,0.708
			c0.374,0.999,1.106,1.068,1.557,1.029c0.471-0.042,0.833-0.246,1.084-0.584c0.234-0.319,0.221-0.736,0.014-1.097
			c-0.188-0.325-0.736-0.417-1.009-0.122"/>
		<path fill="none" stroke="#1D2935" stroke-linecap="round" stroke-miterlimit="10" d="M34.747,97.437
			c-0.453-1.265-1.726-2.192-3.068-2.235c-0.709-0.023-1.475,0.221-1.869,0.809c-0.354,0.53-0.441,1.286-0.196,1.874
			c0.262,0.622,0.958,1.131,1.629,1.072c0.33-0.03,0.664-0.156,0.887-0.461c0.16-0.221,0.307-0.582,0.18-0.931
			c-0.125-0.347-0.652-0.722-1.027-0.375"/>
		<path fill="none" stroke="#1D2935" stroke-linecap="round" stroke-miterlimit="10" d="M28.42,100.232
			c0.423-0.911,1.513-1.457,2.497-1.249c0.981,0.208,1.749,1.05,1.768,2.055c0.002,0.184-0.014,0.487-0.098,0.708
			c-0.374,0.999-1.107,1.068-1.556,1.029c-0.473-0.042-0.834-0.246-1.084-0.584c-0.235-0.319-0.221-0.736-0.015-1.097
			c0.189-0.325,0.736-0.417,1.01-0.122"/>
		<path fill="none" stroke="#1D2935" stroke-linecap="round" stroke-miterlimit="10" d="M28.378,100.03
			c-0.19-0.982-0.916-1.804-1.064-2.793c-0.05-0.336-0.031-0.684,0.057-1.012c0.085-0.321,0.216-0.67,0.454-0.901
			c0.235-0.228,0.667-0.323,0.946-0.153c0.249,0.153,0.402,0.506,0.471,0.695c0.194,0.528,0.127,1.009,0.07,1.458
			c-0.084,0.667-0.772,2.28-0.903,2.737"/>
		<path fill="none" stroke="#1D2935" stroke-linecap="round" stroke-miterlimit="10" d="M22.011,121.646
			c0.454,1.265,1.725,2.192,3.069,2.235c0.708,0.023,1.473-0.222,1.868-0.81c0.354-0.529,0.441-1.285,0.196-1.873
			c-0.262-0.623-0.958-1.131-1.629-1.071c-0.33,0.029-0.664,0.155-0.886,0.46c-0.162,0.221-0.307,0.582-0.18,0.931
			c0.124,0.348,0.652,0.723,1.026,0.375"/>
		<path fill="none" stroke="#1D2935" stroke-linecap="round" stroke-miterlimit="10" d="M28.338,118.851
			c-0.423,0.911-1.513,1.457-2.497,1.249c-0.981-0.208-1.749-1.051-1.768-2.055c-0.002-0.184,0.015-0.486,0.098-0.709
			c0.374-0.998,1.106-1.067,1.557-1.027c0.471,0.042,0.833,0.246,1.084,0.583c0.234,0.32,0.221,0.736,0.014,1.097
			c-0.188,0.327-0.736,0.417-1.009,0.123"/>
		<path fill="none" stroke="#1D2935" stroke-linecap="round" stroke-miterlimit="10" d="M34.747,121.646
			c-0.453,1.265-1.726,2.192-3.068,2.235c-0.709,0.023-1.475-0.222-1.869-0.81c-0.354-0.529-0.441-1.285-0.196-1.873
			c0.262-0.623,0.958-1.131,1.629-1.071c0.33,0.029,0.664,0.155,0.887,0.46c0.16,0.221,0.307,0.582,0.18,0.931
			c-0.125,0.348-0.652,0.723-1.027,0.375"/>
		<path fill="none" stroke="#1D2935" stroke-linecap="round" stroke-miterlimit="10" d="M28.42,118.851
			c0.423,0.911,1.513,1.457,2.497,1.249c0.981-0.208,1.749-1.051,1.768-2.055c0.002-0.184-0.014-0.486-0.098-0.709
			c-0.374-0.998-1.107-1.067-1.556-1.027c-0.473,0.042-0.834,0.246-1.084,0.583c-0.235,0.32-0.221,0.736-0.015,1.097
			c0.189,0.327,0.736,0.417,1.01,0.123"/>
		<path fill="none" stroke="#1D2935" stroke-linecap="round" stroke-miterlimit="10" d="M28.378,119.053
			c-0.19,0.981-0.916,1.804-1.064,2.792c-0.05,0.337-0.031,0.684,0.057,1.013c0.085,0.32,0.216,0.669,0.454,0.9
			c0.235,0.229,0.667,0.324,0.946,0.153c0.249-0.153,0.402-0.506,0.471-0.695c0.194-0.528,0.127-1.008,0.07-1.458
			c-0.084-0.666-0.772-2.28-0.903-2.736"/>
		<polyline fill="#1D2935" points="4.589,90.026 54.711,90.026 54.711,89.508 4.589,89.508 		"/>
		<polyline fill="none" stroke="#1D2935" stroke-width="0.75" stroke-miterlimit="10" points="4.589,90.026 54.711,90.026 
			54.711,89.508 4.589,89.508 		"/>
		<path fill="#1D2935" d="M14.766,88.015c-0.39,0-0.707,0.317-0.707,0.707c0,0.39,0.317,0.707,0.707,0.707
			c0.391,0,0.707-0.317,0.707-0.707C15.473,88.332,15.156,88.015,14.766,88.015 M14.766,89.153c-0.239,0-0.432-0.194-0.432-0.432
			c0-0.239,0.192-0.433,0.432-0.433c0.238,0,0.432,0.193,0.432,0.433C15.197,88.959,15.004,89.153,14.766,89.153"/>
		<path fill="none" stroke="#1D2935" stroke-width="0.75" stroke-miterlimit="10" d="M14.766,88.015
			c-0.39,0-0.707,0.317-0.707,0.707c0,0.39,0.317,0.707,0.707,0.707c0.391,0,0.707-0.317,0.707-0.707
			C15.473,88.332,15.156,88.015,14.766,88.015z M14.766,89.153c-0.239,0-0.432-0.194-0.432-0.432c0-0.239,0.192-0.433,0.432-0.433
			c0.238,0,0.432,0.193,0.432,0.433C15.197,88.959,15.004,89.153,14.766,89.153z"/>
		<path fill="#1D2935" d="M14.766,98.425c-0.39,0-0.707,0.317-0.707,0.707c0,0.389,0.317,0.707,0.707,0.707
			c0.391,0,0.707-0.318,0.707-0.707C15.473,98.742,15.156,98.425,14.766,98.425 M14.766,99.564c-0.239,0-0.432-0.195-0.432-0.433
			c0-0.238,0.192-0.432,0.432-0.432c0.238,0,0.432,0.194,0.432,0.432C15.197,99.37,15.004,99.564,14.766,99.564"/>
		<path fill="none" stroke="#1D2935" stroke-width="0.75" stroke-miterlimit="10" d="M14.766,98.425
			c-0.39,0-0.707,0.317-0.707,0.707c0,0.389,0.317,0.707,0.707,0.707c0.391,0,0.707-0.318,0.707-0.707
			C15.473,98.742,15.156,98.425,14.766,98.425z M14.766,99.564c-0.239,0-0.432-0.195-0.432-0.433c0-0.238,0.192-0.432,0.432-0.432
			c0.238,0,0.432,0.194,0.432,0.432C15.197,99.37,15.004,99.564,14.766,99.564z"/>
		<rect x="14.554" y="89.177" fill="#1D2935" width="0.356" height="9.366"/>
		
			<rect x="14.554" y="89.177" fill="none" stroke="#1D2935" stroke-width="0.937" stroke-miterlimit="10" width="0.356" height="9.366"/>
		<path fill="#1D2935" d="M42.306,98.425c-0.393,0-0.709,0.317-0.709,0.707c0,0.389,0.316,0.707,0.709,0.707
			c0.389,0,0.705-0.318,0.705-0.707C43.011,98.742,42.692,98.425,42.306,98.425 M42.306,99.564c-0.24,0-0.435-0.195-0.435-0.433
			c0-0.238,0.192-0.432,0.435-0.432c0.236,0,0.432,0.194,0.432,0.432C42.735,99.37,42.542,99.564,42.306,99.564"/>
		<path fill="none" stroke="#1D2935" stroke-width="0.75" stroke-miterlimit="10" d="M42.306,98.425
			c-0.393,0-0.709,0.317-0.709,0.707c0,0.389,0.316,0.707,0.709,0.707c0.389,0,0.705-0.318,0.705-0.707
			C43.011,98.742,42.692,98.425,42.306,98.425z M42.306,99.564c-0.24,0-0.435-0.195-0.435-0.433c0-0.238,0.192-0.432,0.435-0.432
			c0.236,0,0.432,0.194,0.432,0.432C42.735,99.37,42.542,99.564,42.306,99.564z"/>
		<rect x="42.092" y="89.177" fill="#1D2935" width="0.356" height="9.432"/>
		
			<rect x="42.092" y="89.177" fill="none" stroke="#1D2935" stroke-width="0.941" stroke-miterlimit="10" width="0.356" height="9.432"/>
		<path fill="none" stroke="#1D2935" stroke-width="2.023" stroke-linecap="round" stroke-miterlimit="10" d="M55.041,77.777
			c0.106,1.789-0.013,3.616-0.308,5.384s-1.031,3.521-2.377,4.739c-1.344,1.217-3.361,1.804-5.078,1.179
			c-1.805-0.655-2.967-2.573-2.918-4.453c0.027-1.14,0.355-2.369,1.181-3.175c0.979-0.956,2.325-1.175,3.438-0.841
			c1.115,0.335,1.914,1.55,1.863,2.688c-0.031,0.715-0.436,1.422-1.078,1.765c-0.644,0.344-1.513,0.273-2.045-0.22"/>
		<path fill="none" stroke="#1D2935" stroke-width="2.023" stroke-linecap="round" stroke-miterlimit="10" d="M40.041,89.647
			c2.489-0.319,3.036-0.916,3.633-1.646c0.711-0.87,0.656-1.553,0.711-1.942c0.146-1.011-0.718-2.283-1.673-2.698
			c-0.953-0.415-2.171-0.138-2.842,0.645c-0.51,0.596-0.682,1.486-0.316,2.176c0.364,0.689,1.311,1.064,2.021,0.719
			c0.32-0.156,0.578-0.448,0.65-0.791c0.11-0.522-0.151-1.21-0.805-1.124"/>
		<text transform="matrix(1 0 0 1 7.6182 111.792)" fill="#1D2935" font-family="'ArialRoundedMTBold'" font-size="7.7221">J O G IS GOOD</text>
		<path fill="none" stroke="#1D2935" stroke-width="2" stroke-linecap="round" stroke-miterlimit="10" d="M60.528,51.447
			c-1.311-1.002-2.008-2.629-2.325-4.249c-0.433-2.19-0.265-4.496,0.479-6.601c0.854-2.422,2.996-4.29,3.051-6.858
			c0.022-1-0.26-1.848-1.348-2.283c-1.156-0.462-2.037,0.411-2.304,0.935s-0.304,1.565,0.565,2.065"/>
		<path fill="none" stroke="#1D2935" stroke-width="2" stroke-linecap="round" stroke-miterlimit="10" d="M58.577,48.84
			c-0.762,0.934-1.014,2.203-0.917,3.402c0.099,1.201,0.516,2.35,0.981,3.461c0.166,0.399,0.344,0.807,0.369,1.24
			c0.023,0.433-0.135,0.905-0.504,1.131c-0.369,0.227-0.951,0.084-1.078-0.33"/>
		<path fill="#1D2935" d="M56.782,246.47c-1.141,0.052-2.246,0.06-3.373-0.104c-1.785-0.259-2.583-0.778-2.403-1.236
			c0.2-0.51,0.87-0.641,1.479-0.754c0.898-0.168,3.221-0.328,3.811-0.315c1.749,0.043,3.01,0.043,4.637,0.399
			c0.736,0.161,1.391,0.558,1.252,1.021c-0.113,0.386-0.779,0.609-1.229,0.697C59.351,246.49,58.222,246.409,56.782,246.47"/>
		<path fill="none" stroke="#1D2935" stroke-width="2" stroke-linecap="round" stroke-miterlimit="10" d="M56.782,246.47
			c-1.141,0.052-2.246,0.06-3.373-0.104c-1.785-0.259-2.583-0.778-2.403-1.236c0.2-0.51,0.87-0.641,1.479-0.754
			c0.898-0.168,3.221-0.328,3.811-0.315c1.749,0.043,3.01,0.043,4.637,0.399c0.736,0.161,1.391,0.558,1.252,1.021
			c-0.113,0.386-0.779,0.609-1.229,0.697C59.351,246.49,58.222,246.409,56.782,246.47z"/>
		<rect x="54.813" y="71.3" fill="#1D2935" width="3.174" height="132.853"/>
		<rect x="54.813" y="71.3" fill="none" stroke="#1D2935" stroke-miterlimit="10" width="3.174" height="132.853"/>
		<path fill="#1D2935" d="M56.59,200.979c-0.681,0.035-1.341,0.041-2.015-0.071c-1.065-0.179-1.542-0.539-1.436-0.856
			c0.118-0.353,0.521-0.441,0.885-0.521c0.535-0.117,1.922-0.229,2.274-0.218c1.043,0.028,1.796,0.028,2.769,0.275
			c0.439,0.112,0.83,0.387,0.748,0.707c-0.068,0.268-0.467,0.421-0.733,0.482C58.123,200.992,57.449,200.934,56.59,200.979"/>
		<path fill="none" stroke="#1D2935" stroke-width="2" stroke-linecap="round" stroke-miterlimit="10" d="M56.59,200.979
			c-0.681,0.035-1.341,0.041-2.015-0.071c-1.065-0.179-1.542-0.539-1.436-0.856c0.118-0.353,0.521-0.441,0.885-0.521
			c0.535-0.117,1.922-0.229,2.274-0.218c1.043,0.028,1.796,0.028,2.769,0.275c0.439,0.112,0.83,0.387,0.748,0.707
			c-0.068,0.268-0.467,0.421-0.733,0.482C58.123,200.992,57.449,200.934,56.59,200.979z"/>
		<rect x="53.198" y="200.27" fill="#1D2935" width="6.55" height="44.66"/>
		
			<rect x="53.198" y="200.27" fill="none" stroke="#1D2935" stroke-width="1.969" stroke-linecap="round" stroke-miterlimit="10" width="6.55" height="44.66"/>
		<path fill="#1D2935" d="M50.978,248.752c0.201-0.51,0.871-0.641,1.479-0.754c0.897-0.167,3.22-0.328,3.81-0.314
			c1.75,0.043,3.01,0.043,4.637,0.398c0.738,0.161,1.391,0.559,1.252,1.021"/>
		<path fill="none" stroke="#1D2935" stroke-width="2" stroke-linecap="round" stroke-miterlimit="10" d="M50.978,248.752
			c0.201-0.51,0.871-0.641,1.479-0.754c0.897-0.167,3.22-0.328,3.81-0.314c1.75,0.043,3.01,0.043,4.637,0.398
			c0.738,0.161,1.391,0.559,1.252,1.021"/>
		<polyline fill="#1D2935" points="62.502,249.189 62.502,245.189 50.666,245.189 50.666,249.189 		"/>
		<g opacity="0.6">
			<g>
				<g>
					<defs>
						<rect id="SVGID_1_" x="54.967" y="72.565" width="0.484" height="127.621"/>
					</defs>
					<clipPath id="SVGID_2_">
						<use xlink:href="#SVGID_1_"  overflow="visible"/>
					</clipPath>
					<polygon clip-path="url(#SVGID_2_)" fill="#FFFAFC" points="54.967,200.117 55.173,200.186 55.451,72.622 54.974,72.565 					
						"/>
				</g>
			</g>
		</g>
		<g opacity="0.6">
			<g>
				<g>
					<defs>
						<rect id="SVGID_3_" x="53.304" y="200.771" width="0.565" height="44.061"/>
					</defs>
					<clipPath id="SVGID_4_">
						<use xlink:href="#SVGID_3_"  overflow="visible"/>
					</clipPath>
					<polygon clip-path="url(#SVGID_4_)" fill="#FFFAFC" points="53.313,244.756 53.574,244.832 53.869,200.934 53.304,200.771 
											"/>
				</g>
			</g>
		</g>
		<polyline fill="#FFFAFC" points="51.286,249.189 51.417,245.887 51.054,245.746 51.054,249.061 		"/>
		<polyline fill="none" points="51.417,249.189 51.417,245.746 51.054,245.746 51.054,249.189 		"/>
		<path fill="#1D2935" d="M58.785,71.958c0,0.713-1.013,1.29-2.261,1.29s-2.262-0.577-2.262-1.29c0-0.712,1.014-1.289,2.262-1.289
			S58.785,71.246,58.785,71.958"/>
		
			<ellipse fill="none" stroke="#1D2935" stroke-width="1.055" stroke-miterlimit="10" cx="56.524" cy="71.958" rx="2.261" ry="1.29"/>
		<rect x="55.345" y="36.174" fill="#1D2935" width="2.176" height="35.474"/>
		<path fill="#1D2935" d="M58.608,62.82c0,0.547-0.951,0.991-2.129,0.991s-2.131-0.444-2.131-0.991c0-0.546,0.953-0.99,2.131-0.99
			S58.608,62.273,58.608,62.82"/>
		<path fill="#1D2935" d="M58.608,64.269c0,0.547-0.951,0.991-2.129,0.991s-2.131-0.443-2.131-0.991
			c0-0.547,0.953-0.991,2.131-0.991S58.608,63.722,58.608,64.269"/>
		<path fill="#1D2935" d="M58.608,65.557c0,0.547-0.951,0.99-2.129,0.99s-2.131-0.443-2.131-0.99c0-0.547,0.953-0.991,2.131-0.991
			S58.608,65.01,58.608,65.557"/>
		<rect x="54.91" y="34.936" fill="#1D2935" width="3.044" height="1.717"/>
		<path fill="none" stroke="#1D2935" stroke-width="2" stroke-linecap="round" stroke-miterlimit="10" d="M54.388,43.217
			c-1.057-4.634-3.55-7.098-3.482-9.667c0.025-1,0.348-1.833,1.453-2.215c1.18-0.408,2.018,0.506,2.259,1.042
			s0.229,1.578-0.662,2.036"/>
		<path fill="none" stroke="#1D2935" stroke-width="2.5" stroke-linecap="round" stroke-miterlimit="10" d="M28.208,46.422
			c-0.36-2.688,0.564-5.461,2.231-7.602c1.665-2.14,4.021-3.678,6.55-4.655c1.736-0.671,4.044-1.338,6.386-1.063
			c5.446,0.638,7.097,2.558,8.662,4.477c0.967,1.186,1.53,2.647,1.95,4.118c0.441,1.549,0.55,3.244,0.227,4.823
			c-0.434,2.111-1.635,4.04-3.348,5.348c-2.854,2.181-6.846,3.152-10.205,1.878c-1.865-0.708-3.439-2.157-4.299-3.96
			c-0.965-2.032-0.891-4.736,0.772-6.251c0.511-0.466,1.138-0.792,1.786-1.022c1.762-0.622,3.895-0.492,5.279,0.759
			s1.566,3.724,0.492,5.249c-0.521,0.74-2.26,2.021-3.955,0.522c-0.625-0.552-0.596-1.543-0.348-2.066
			c0.367-0.782,1.498-1.108,2.021-0.217"/>
		<path fill="none" stroke="#1D2935" stroke-width="2.5" stroke-linecap="round" stroke-miterlimit="10" d="M28.941,41.333
			c-0.507,2.081,0.185,5.118,1.889,6.417c0.884,0.672,2.125,1.014,3.116,0.511c0.582-0.296,1.014-0.869,1.138-1.508
			c0.126-0.641,0.054-1.362-0.374-1.854c-0.243-0.281-0.693-0.474-1.064-0.491c-0.369-0.016-1.051,0.258-1.139,0.867"/>
		<path fill="none" stroke="#1D2935" stroke-width="2" stroke-linecap="round" stroke-miterlimit="10" d="M45.345,41.565
			c0.522,6.173,1.473,11.306,4.836,14.821c1.055,1.104,2.514,2.055,4.019,1.78c0.39-0.07,0.782-0.238,1.016-0.558
			c0.235-0.319,0.255-0.815-0.034-1.087c-0.287-0.272-0.869-0.148-0.945,0.241"/>
		<path fill="none" stroke="#1D2935" stroke-width="2.108" stroke-linecap="round" stroke-miterlimit="10" d="M39.521,42.391
			c1.582-0.029,3.235-0.474,4.543-1.465c1.306-0.991,2.179-2.846,1.746-4.536c-0.447-1.76-2.078-2.819-3.725-2.845
			c-0.648-0.011-1.307,0.033-1.869,0.391s-1.188,1.081-1.348,1.783c-0.348,1.521,0.15,2.707,1.848,2.956
			c1.479,0.217,2.028-1.182,1.739-1.935"/>
		<path fill="#F4EB98" d="M31.758,60.586c1.826,1.598,3.349,3.667,3.806,6.051c0.457,2.384-0.33,5.091-2.316,6.485
			c-1.075,0.755-2.479,1.152-3.17,2.271c-0.489,0.793-0.731,2.123-1.633,2.125c-0.904,0.001-1.146-1.33-1.638-2.125
			c-0.688-1.119-2.093-1.516-3.167-2.271c-1.987-1.395-2.774-4.102-2.317-6.485c0.456-2.384,1.979-4.453,3.806-6.051H31.758z"/>
		<path fill="none" stroke="#1D2935" stroke-width="2" stroke-linecap="round" stroke-miterlimit="10" d="M31.758,60.586
			c1.826,1.598,3.349,3.667,3.806,6.051c0.457,2.384-0.33,5.091-2.316,6.485c-1.075,0.755-2.479,1.152-3.17,2.271
			c-0.489,0.793-0.731,2.123-1.633,2.125c-0.904,0.001-1.146-1.33-1.638-2.125c-0.688-1.119-2.093-1.516-3.167-2.271
			c-1.987-1.395-2.774-4.102-2.317-6.485c0.456-2.384,1.979-4.453,3.806-6.051H31.758z"/>
		<path fill="#1D2935" d="M31.174,59.085c0.243-0.558,0.035-1.385-0.458-1.74c-0.726-0.521-1.479-0.55-2.089-0.55
			c-0.733,0-1.388,0.195-1.824,0.554c-0.489,0.402-0.761,0.983-0.522,1.804L31.174,59.085z"/>
		<path fill="#1D2935" d="M33.002,61.294c0.782-0.805,0.187-1.768-0.702-2.123c-1.305-0.522-2.659-0.551-3.756-0.551
			c-1.323,0-2.531,0.259-3.301,0.652c-1.022,0.522-1.104,1.222-0.673,2.043c0,0,2.499-0.326,4.151-0.326
			C30.96,60.99,33.002,61.294,33.002,61.294"/>
		<path fill="#FFFAFC" d="M31.814,61.618l-1.329-0.02c0,0,2.015,3.485,1.471,6.224c-0.693,3.494-2.519,4.996-2.519,4.996
			s3.225-0.584,4.332-3.163c1.092-2.54,0.463-3.807,0.182-4.733C33.669,63.995,31.814,61.618,31.814,61.618"/>
		<g opacity="0.6">
			<g>
				<g>
					<defs>
						<rect id="SVGID_5_" x="29.177" y="57.077" width="1.674" height="1.76"/>
					</defs>
					<clipPath id="SVGID_6_">
						<use xlink:href="#SVGID_5_"  overflow="visible"/>
					</clipPath>
					<path clip-path="url(#SVGID_6_)" fill="#FFFAFC" d="M29.177,57.077c0,0,0.762,0.13,1.175,0.391
						c0.413,0.261,0.499,0.805,0.499,1c0,0.195-0.021,0.369-0.021,0.369h-0.305c0,0,0-0.579-0.42-1.042
						C29.806,57.463,29.177,57.077,29.177,57.077"/>
				</g>
			</g>
		</g>
		<g opacity="0.6">
			<g>
				<g>
					<defs>
						<rect id="SVGID_7_" x="30.54" y="59.083" width="2.345" height="1.906"/>
					</defs>
					<clipPath id="SVGID_8_">
						<use xlink:href="#SVGID_7_"  overflow="visible"/>
					</clipPath>
					<path clip-path="url(#SVGID_8_)" fill="#FFFAFC" d="M30.865,59.083c0,0,1.638,0.297,1.92,0.949
						c0.283,0.652-0.131,0.957-0.131,0.957l-0.477-0.065c0,0,0.265-0.304,0.035-0.797c-0.253-0.543-1.673-1.022-1.673-1.022
						L30.865,59.083z"/>
				</g>
			</g>
		</g>
		<path fill="none" stroke="#1D2935" stroke-width="2.5" stroke-linecap="round" stroke-miterlimit="10" d="M28.238,44.434
			c0.033,0.649,0.023,1.301-0.027,1.95c-0.032,0.414-0.089,0.843-0.318,1.188c-0.238,0.357-0.639,0.58-1.053,0.688
			c-0.508,0.131-1.073,0.099-1.522-0.175c-0.446-0.272-0.746-0.808-0.663-1.326"/>
		<path fill="#1D2935" d="M28.275,44.608c0,0-0.765,3.158-0.6,4.434c0.165,1.275,0.832,1.914,1.527,1.247
			c0.695-0.666,0-4.55-0.291-5.304C28.623,44.231,28.275,44.608,28.275,44.608"/>
		
			<line fill="none" stroke="#1D2935" stroke-width="2" stroke-linecap="round" stroke-miterlimit="10" x1="28.71" y1="50.028" x2="28.71" y2="53.795"/>
		<path fill="none" stroke="#1D2935" stroke-width="2" stroke-linecap="round" stroke-miterlimit="10" d="M28.686,56.924
			c-0.588-0.674-0.702-1.389-0.793-2.188c-0.12-1.032,1.521-1.228,1.51-0.119c-0.009,0.892-0.202,1.605-0.695,2.347"/>
		<g opacity="0.6">
			<g>
				<g>
					<defs>
						<rect id="SVGID_9_" x="54.431" y="70.909" width="0.914" height="1.967"/>
					</defs>
					<clipPath id="SVGID_10_">
						<use xlink:href="#SVGID_9_"  overflow="visible"/>
					</clipPath>
					<path clip-path="url(#SVGID_10_)" fill="#FFFAFC" d="M55.345,72.876c0,0-0.914-0.293-0.914-0.963
						c0-0.574,0.87-1.004,0.87-1.004s-0.348,0.586-0.348,1.004C54.953,72.44,55.345,72.876,55.345,72.876"/>
				</g>
			</g>
		</g>
		<g opacity="0.6">
			<g>
				<g>
					<defs>
						<rect id="SVGID_11_" x="55.481" y="66.424" width="0.259" height="4.209"/>
					</defs>
					<clipPath id="SVGID_12_">
						<use xlink:href="#SVGID_11_"  overflow="visible"/>
					</clipPath>
					<polygon clip-path="url(#SVGID_12_)" fill="#FFFAFC" points="55.576,70.633 55.505,70.626 55.481,66.424 55.74,66.464 					"/>
				</g>
			</g>
		</g>
		<g opacity="0.6">
			<g>
				<g>
					<defs>
						<rect id="SVGID_13_" x="54.576" y="65.004" width="1.028" height="1.231"/>
					</defs>
					<clipPath id="SVGID_14_">
						<use xlink:href="#SVGID_13_"  overflow="visible"/>
					</clipPath>
					<path clip-path="url(#SVGID_14_)" fill="#FFFAFC" d="M54.924,65.004c0,0-0.333,0.217-0.348,0.478
						c-0.015,0.261,0.196,0.479,0.428,0.587c0.231,0.109,0.601,0.167,0.601,0.167s-0.578-0.362-0.672-0.703
						C54.837,65.193,54.924,65.004,54.924,65.004"/>
				</g>
			</g>
		</g>
		<g opacity="0.6">
			<g>
				<g>
					<defs>
						<rect id="SVGID_15_" x="54.576" y="63.714" width="1.028" height="1.232"/>
					</defs>
					<clipPath id="SVGID_16_">
						<use xlink:href="#SVGID_15_"  overflow="visible"/>
					</clipPath>
					<path clip-path="url(#SVGID_16_)" fill="#FFFAFC" d="M54.924,63.714c0,0-0.333,0.217-0.348,0.478
						c-0.015,0.261,0.196,0.478,0.428,0.587c0.231,0.108,0.601,0.167,0.601,0.167s-0.578-0.362-0.672-0.703
						C54.837,63.903,54.924,63.714,54.924,63.714"/>
				</g>
			</g>
		</g>
		<g opacity="0.6">
			<g>
				<g>
					<defs>
						<rect id="SVGID_17_" x="54.576" y="62.287" width="1.028" height="1.231"/>
					</defs>
					<clipPath id="SVGID_18_">
						<use xlink:href="#SVGID_17_"  overflow="visible"/>
					</clipPath>
					<path clip-path="url(#SVGID_18_)" fill="#FFFAFC" d="M54.924,62.287c0,0-0.333,0.217-0.348,0.478
						c-0.015,0.261,0.196,0.478,0.428,0.587c0.231,0.108,0.601,0.167,0.601,0.167s-0.578-0.362-0.672-0.702
						C54.837,62.476,54.924,62.287,54.924,62.287"/>
				</g>
			</g>
		</g>
		<g opacity="0.6">
			<g>
				<g>
					<defs>
						<rect id="SVGID_19_" x="55.476" y="36.607" width="0.184" height="25.39"/>
					</defs>
					<clipPath id="SVGID_20_">
						<use xlink:href="#SVGID_19_"  overflow="visible"/>
					</clipPath>
					<polygon clip-path="url(#SVGID_20_)" fill="#FFFAFC" points="55.604,61.997 55.476,61.997 55.476,36.608 55.657,36.607 					
						"/>
				</g>
			</g>
		</g>
		<g opacity="0.6">
			<g>
				<g>
					<defs>
						<rect id="SVGID_21_" x="55.003" y="35.022" width="0.196" height="1.565"/>
					</defs>
					<clipPath id="SVGID_22_">
						<use xlink:href="#SVGID_21_"  overflow="visible"/>
					</clipPath>
					<polygon clip-path="url(#SVGID_22_)" fill="#FFFAFC" points="55.116,36.587 55.009,36.587 55.004,35.03 55.199,35.022 					"/>
				</g>
			</g>
		</g>
		<g opacity="0.6">
			<g>
				<g>
					<defs>
						<rect id="SVGID_23_" x="54.996" y="31.827" width="1.065" height="2.746"/>
					</defs>
					<clipPath id="SVGID_24_">
						<use xlink:href="#SVGID_23_"  overflow="visible"/>
					</clipPath>
					<path clip-path="url(#SVGID_24_)" fill="#FFFAFC" d="M54.996,31.827c0,0,0.651,0.761,0.827,1.152
						c0.174,0.391,0.195,1.594,0.195,1.594s0.088-1.221,0.014-1.55C55.944,32.631,55.321,32.121,54.996,31.827"/>
				</g>
			</g>
		</g>
		<g opacity="0.6">
			<g>
				<g>
					<defs>
						<rect id="SVGID_25_" x="52.087" y="20.089" width="3.766" height="9.863"/>
					</defs>
					<clipPath id="SVGID_26_">
						<use xlink:href="#SVGID_25_"  overflow="visible"/>
					</clipPath>
					<path clip-path="url(#SVGID_26_)" fill="#FFFAFC" d="M55.791,20.089c0,0-0.009,1.479-0.022,1.816
						c-0.021,0.549-0.142,0.761-0.315,0.978c-0.099,0.125-0.394,0.337-0.629,0.498c-0.187,0.104-0.399,0.219-0.652,0.346
						c-0.627,0.313-1.325,0.602-1.805,1.775c-0.478,1.173-0.386,2.935,0.608,4.108c0.09,0.105,0.18,0.222,0.273,0.342
						c-0.456-1.414-0.616-2.535-0.164-3.994c0.284-0.917,1.014-1.749,1.602-2.302c0.021-0.015,0.039-0.029,0.061-0.045
						c0.369-0.272,0.609-0.479,0.77-0.65l0.004-0.002l-0.004,0.002c0.316-0.339,0.309-0.524,0.328-0.742
						C55.876,21.894,55.791,20.089,55.791,20.089"/>
				</g>
			</g>
		</g>
		<g opacity="0.6">
			<g>
				<g>
					<defs>
						<rect id="SVGID_27_" x="54.519" y="16.764" width="1.306" height="2.587"/>
					</defs>
					<clipPath id="SVGID_28_">
						<use xlink:href="#SVGID_27_"  overflow="visible"/>
					</clipPath>
					<path clip-path="url(#SVGID_28_)" fill="#FFFAFC" d="M55.823,16.764c0,0-1.305,0.283-1.305,1.282s1.217,1.304,1.217,1.304
						s-0.891-0.479-0.912-1.347C54.804,17.242,55.823,16.764,55.823,16.764"/>
				</g>
			</g>
		</g>
	</g>
	<g id="路燈_x28_半亮_x29_">
		<path fill="#1D2935" d="M60.388,24.78c-0.977-1.72-3.158-1.301-3.299-2.557c-0.139-1.254-0.046-2.555-0.046-2.555
			s1.255-0.465,1.255-1.719c0-1.068-1.242-1.388-2.025-1.388c-0.819,0-2.027,0.32-2.027,1.388c0,1.254,1.254,1.719,1.254,1.719
			s0.094,1.301-0.046,2.555c-0.14,1.255-2.323,0.837-3.3,2.557c-0.975,1.719-1.066,4.135,1.395,6.226
			c2.463,2.091,2.186,2.881,2.23,3.811c0.047,0.929,0,1.487,0,1.487l0.429,0.035v0.011l0.065-0.006l0.063,0.006v-0.011l0.427-0.035
			c0,0-0.045-0.558,0-1.487c0.049-0.93-0.23-1.72,2.23-3.811C61.456,28.915,61.364,26.499,60.388,24.78"/>
		<path fill="#C4BF70" d="M4.634,109.561c0-9.189,10.697-16.638,23.893-16.638c13.197,0,23.892,7.449,23.892,16.638"/>
		<path fill="#C4BF70" d="M52.418,109.561c0,9.188-10.696,16.638-23.892,16.638S4.634,118.75,4.634,109.561"/>
		<path fill="none" d="M4.634,109.561c0,9.189,10.697,16.638,23.891,16.638c13.197,0,23.894-7.449,23.894-16.638
			c0-9.188-10.695-16.637-23.894-16.637C15.331,92.923,4.634,100.372,4.634,109.561"/>
		<path fill="none" stroke="#1D2935" stroke-width="2" stroke-linecap="round" stroke-miterlimit="10" d="M4.634,109.561
			c0-9.189,10.697-16.638,23.893-16.638c13.197,0,23.892,7.449,23.892,16.638c0,9.188-10.695,16.638-23.892,16.638
			C15.331,126.199,4.634,118.75,4.634,109.561"/>
		<path fill="none" stroke="#1D2935" stroke-linecap="round" stroke-miterlimit="10" d="M21.969,97.496
			c0.454-1.265,1.725-2.192,3.069-2.235c0.708-0.023,1.473,0.221,1.868,0.809c0.354,0.53,0.441,1.286,0.196,1.874
			c-0.262,0.622-0.958,1.131-1.629,1.072c-0.33-0.03-0.664-0.156-0.886-0.461c-0.162-0.221-0.307-0.582-0.18-0.931
			c0.124-0.347,0.652-0.722,1.026-0.375"/>
		<path fill="none" stroke="#1D2935" stroke-linecap="round" stroke-miterlimit="10" d="M28.296,100.292
			c-0.423-0.911-1.513-1.457-2.497-1.249c-0.981,0.208-1.749,1.05-1.768,2.055c-0.002,0.184,0.015,0.487,0.098,0.708
			c0.374,0.999,1.106,1.068,1.557,1.029c0.471-0.042,0.833-0.246,1.084-0.584c0.234-0.319,0.221-0.736,0.014-1.097
			c-0.188-0.325-0.736-0.417-1.009-0.122"/>
		<path fill="none" stroke="#1D2935" stroke-linecap="round" stroke-miterlimit="10" d="M34.705,97.496
			c-0.453-1.265-1.726-2.192-3.068-2.235c-0.709-0.023-1.475,0.221-1.869,0.809c-0.354,0.53-0.441,1.286-0.196,1.874
			c0.262,0.622,0.958,1.131,1.629,1.072c0.33-0.03,0.664-0.156,0.887-0.461c0.16-0.221,0.307-0.582,0.18-0.931
			c-0.125-0.347-0.652-0.722-1.027-0.375"/>
		<path fill="none" stroke="#1D2935" stroke-linecap="round" stroke-miterlimit="10" d="M28.378,100.292
			c0.423-0.911,1.513-1.457,2.497-1.249c0.981,0.208,1.749,1.05,1.768,2.055c0.002,0.184-0.014,0.487-0.098,0.708
			c-0.374,0.999-1.107,1.068-1.556,1.029c-0.473-0.042-0.834-0.246-1.084-0.584c-0.235-0.319-0.221-0.736-0.015-1.097
			c0.189-0.325,0.736-0.417,1.01-0.122"/>
		<path fill="none" stroke="#1D2935" stroke-linecap="round" stroke-miterlimit="10" d="M28.336,100.09
			c-0.19-0.982-0.916-1.804-1.064-2.793c-0.05-0.336-0.031-0.684,0.057-1.012c0.085-0.321,0.216-0.67,0.454-0.901
			c0.235-0.228,0.667-0.323,0.946-0.153c0.249,0.153,0.402,0.506,0.471,0.695c0.194,0.528,0.127,1.009,0.07,1.458
			c-0.084,0.667-0.772,2.28-0.903,2.737"/>
		<path fill="none" stroke="#1D2935" stroke-linecap="round" stroke-miterlimit="10" d="M21.969,121.706
			c0.454,1.265,1.725,2.192,3.069,2.235c0.708,0.023,1.473-0.222,1.868-0.81c0.354-0.529,0.441-1.285,0.196-1.873
			c-0.262-0.623-0.958-1.131-1.629-1.071c-0.33,0.029-0.664,0.155-0.886,0.46c-0.162,0.221-0.307,0.582-0.18,0.931
			c0.124,0.348,0.652,0.723,1.026,0.375"/>
		<path fill="none" stroke="#1D2935" stroke-linecap="round" stroke-miterlimit="10" d="M28.296,118.91
			c-0.423,0.911-1.513,1.457-2.497,1.249c-0.981-0.208-1.749-1.051-1.768-2.055c-0.002-0.184,0.015-0.486,0.098-0.709
			c0.374-0.998,1.106-1.067,1.557-1.027c0.471,0.042,0.833,0.246,1.084,0.583c0.234,0.32,0.221,0.736,0.014,1.097
			c-0.188,0.327-0.736,0.417-1.009,0.123"/>
		<path fill="none" stroke="#1D2935" stroke-linecap="round" stroke-miterlimit="10" d="M34.705,121.706
			c-0.453,1.265-1.726,2.192-3.068,2.235c-0.709,0.023-1.475-0.222-1.869-0.81c-0.354-0.529-0.441-1.285-0.196-1.873
			c0.262-0.623,0.958-1.131,1.629-1.071c0.33,0.029,0.664,0.155,0.887,0.46c0.16,0.221,0.307,0.582,0.18,0.931
			c-0.125,0.348-0.652,0.723-1.027,0.375"/>
		<path fill="none" stroke="#1D2935" stroke-linecap="round" stroke-miterlimit="10" d="M28.378,118.91
			c0.423,0.911,1.513,1.457,2.497,1.249c0.981-0.208,1.749-1.051,1.768-2.055c0.002-0.184-0.014-0.486-0.098-0.709
			c-0.374-0.998-1.107-1.067-1.556-1.027c-0.473,0.042-0.834,0.246-1.084,0.583c-0.235,0.32-0.221,0.736-0.015,1.097
			c0.189,0.327,0.736,0.417,1.01,0.123"/>
		<path fill="none" stroke="#1D2935" stroke-linecap="round" stroke-miterlimit="10" d="M28.336,119.112
			c-0.19,0.981-0.916,1.804-1.064,2.792c-0.05,0.337-0.031,0.684,0.057,1.013c0.085,0.32,0.216,0.669,0.454,0.9
			c0.235,0.229,0.667,0.324,0.946,0.153c0.249-0.153,0.402-0.506,0.471-0.695c0.194-0.528,0.127-1.008,0.07-1.458
			c-0.084-0.666-0.772-2.28-0.903-2.736"/>
		<polyline fill="#1D2935" points="4.547,90.085 54.669,90.085 54.669,89.568 4.547,89.568 		"/>
		<polyline fill="none" stroke="#1D2935" stroke-width="0.75" stroke-miterlimit="10" points="4.547,90.085 54.669,90.085 
			54.669,89.568 4.547,89.568 		"/>
		<path fill="#1D2935" d="M14.724,88.074c-0.39,0-0.707,0.317-0.707,0.707c0,0.39,0.317,0.707,0.707,0.707
			c0.391,0,0.707-0.317,0.707-0.707C15.431,88.391,15.114,88.074,14.724,88.074 M14.724,89.213c-0.239,0-0.432-0.194-0.432-0.432
			c0-0.239,0.192-0.433,0.432-0.433c0.238,0,0.432,0.193,0.432,0.433C15.155,89.019,14.962,89.213,14.724,89.213"/>
		<path fill="none" stroke="#1D2935" stroke-width="0.75" stroke-miterlimit="10" d="M14.724,88.074
			c-0.39,0-0.707,0.317-0.707,0.707c0,0.39,0.317,0.707,0.707,0.707c0.391,0,0.707-0.317,0.707-0.707
			C15.431,88.391,15.114,88.074,14.724,88.074z M14.724,89.213c-0.239,0-0.432-0.194-0.432-0.432c0-0.239,0.192-0.433,0.432-0.433
			c0.238,0,0.432,0.193,0.432,0.433C15.155,89.019,14.962,89.213,14.724,89.213z"/>
		<path fill="#1D2935" d="M14.724,98.484c-0.39,0-0.707,0.317-0.707,0.707c0,0.389,0.317,0.707,0.707,0.707
			c0.391,0,0.707-0.318,0.707-0.707C15.431,98.801,15.114,98.484,14.724,98.484 M14.724,99.624c-0.239,0-0.432-0.195-0.432-0.433
			c0-0.238,0.192-0.432,0.432-0.432c0.238,0,0.432,0.194,0.432,0.432C15.155,99.429,14.962,99.624,14.724,99.624"/>
		<path fill="none" stroke="#1D2935" stroke-width="0.75" stroke-miterlimit="10" d="M14.724,98.484
			c-0.39,0-0.707,0.317-0.707,0.707c0,0.389,0.317,0.707,0.707,0.707c0.391,0,0.707-0.318,0.707-0.707
			C15.431,98.801,15.114,98.484,14.724,98.484z M14.724,99.624c-0.239,0-0.432-0.195-0.432-0.433c0-0.238,0.192-0.432,0.432-0.432
			c0.238,0,0.432,0.194,0.432,0.432C15.155,99.429,14.962,99.624,14.724,99.624z"/>
		<rect x="14.512" y="89.236" fill="#1D2935" width="0.356" height="9.366"/>
		
			<rect x="14.512" y="89.236" fill="none" stroke="#1D2935" stroke-width="0.937" stroke-miterlimit="10" width="0.356" height="9.366"/>
		<path fill="#1D2935" d="M42.263,98.484c-0.392,0-0.707,0.317-0.707,0.707c0,0.389,0.315,0.707,0.707,0.707
			c0.389,0,0.707-0.318,0.707-0.707C42.97,98.801,42.651,98.484,42.263,98.484 M42.263,99.624c-0.24,0-0.434-0.195-0.434-0.433
			c0-0.238,0.193-0.432,0.434-0.432c0.237,0,0.432,0.194,0.432,0.432C42.694,99.429,42.5,99.624,42.263,99.624"/>
		<path fill="none" stroke="#1D2935" stroke-width="0.75" stroke-miterlimit="10" d="M42.263,98.484
			c-0.392,0-0.707,0.317-0.707,0.707c0,0.389,0.315,0.707,0.707,0.707c0.389,0,0.707-0.318,0.707-0.707
			C42.97,98.801,42.651,98.484,42.263,98.484z M42.263,99.624c-0.24,0-0.434-0.195-0.434-0.433c0-0.238,0.193-0.432,0.434-0.432
			c0.237,0,0.432,0.194,0.432,0.432C42.694,99.429,42.5,99.624,42.263,99.624z"/>
		<rect x="42.05" y="89.236" fill="#1D2935" width="0.355" height="9.432"/>
		
			<rect x="42.05" y="89.236" fill="none" stroke="#1D2935" stroke-width="0.941" stroke-miterlimit="10" width="0.355" height="9.432"/>
		<path fill="none" stroke="#1D2935" stroke-width="2.023" stroke-linecap="round" stroke-miterlimit="10" d="M54.999,77.837
			c0.107,1.789-0.012,3.616-0.309,5.384c-0.295,1.768-1.03,3.521-2.375,4.739c-1.344,1.217-3.362,1.804-5.08,1.179
			c-1.805-0.655-2.965-2.573-2.918-4.453c0.027-1.14,0.356-2.369,1.182-3.175c0.979-0.956,2.325-1.175,3.439-0.841
			c1.113,0.335,1.914,1.55,1.862,2.688c-0.032,0.715-0.436,1.422-1.079,1.765c-0.643,0.344-1.512,0.273-2.043-0.22"/>
		<path fill="none" stroke="#1D2935" stroke-width="2.023" stroke-linecap="round" stroke-miterlimit="10" d="M39.999,89.707
			c2.49-0.319,3.036-0.916,3.633-1.646c0.711-0.87,0.656-1.553,0.711-1.942c0.146-1.011-0.718-2.283-1.673-2.698
			c-0.953-0.415-2.171-0.138-2.842,0.645c-0.509,0.596-0.683,1.486-0.315,2.176c0.363,0.689,1.309,1.064,2.021,0.719
			c0.319-0.156,0.577-0.448,0.651-0.791c0.109-0.522-0.152-1.21-0.806-1.124"/>
		<text transform="matrix(1 0 0 1 7.5762 111.8525)" fill="#1D2935" font-family="'ArialRoundedMTBold'" font-size="7.7221">J O G IS GOOD</text>
		<path fill="none" stroke="#1D2935" stroke-width="2" stroke-linecap="round" stroke-miterlimit="10" d="M60.487,51.507
			c-1.312-1.002-2.008-2.629-2.326-4.249c-0.432-2.19-0.264-4.496,0.479-6.601c0.855-2.422,2.998-4.29,3.053-6.858
			c0.021-1-0.26-1.848-1.348-2.283c-1.156-0.462-2.037,0.411-2.305,0.935c-0.268,0.524-0.305,1.565,0.564,2.065"/>
		<path fill="none" stroke="#1D2935" stroke-width="2" stroke-linecap="round" stroke-miterlimit="10" d="M58.535,48.9
			c-0.761,0.934-1.015,2.203-0.917,3.402c0.099,1.201,0.516,2.35,0.98,3.461c0.168,0.399,0.344,0.807,0.371,1.24
			c0.022,0.433-0.136,0.905-0.505,1.131c-0.37,0.227-0.952,0.084-1.077-0.33"/>
		<path fill="#1D2935" d="M56.74,246.53c-1.142,0.051-2.246,0.059-3.373-0.104c-1.785-0.258-2.583-0.777-2.403-1.236
			c0.2-0.51,0.87-0.641,1.48-0.754c0.897-0.168,3.22-0.328,3.81-0.314c1.749,0.043,3.009,0.043,4.636,0.398
			c0.737,0.162,1.391,0.559,1.254,1.021c-0.115,0.385-0.779,0.609-1.229,0.697C59.308,246.55,58.179,246.468,56.74,246.53"/>
		<path fill="none" stroke="#1D2935" stroke-width="2" stroke-linecap="round" stroke-miterlimit="10" d="M56.74,246.53
			c-1.142,0.051-2.246,0.059-3.373-0.104c-1.785-0.258-2.583-0.777-2.403-1.236c0.2-0.51,0.87-0.641,1.48-0.754
			c0.897-0.168,3.22-0.328,3.81-0.314c1.749,0.043,3.009,0.043,4.636,0.398c0.737,0.162,1.391,0.559,1.254,1.021
			c-0.115,0.385-0.779,0.609-1.229,0.697C59.308,246.55,58.179,246.468,56.74,246.53z"/>
		<rect x="54.771" y="71.359" fill="#1D2935" width="3.176" height="132.852"/>
		<rect x="54.771" y="71.359" fill="none" stroke="#1D2935" stroke-miterlimit="10" width="3.176" height="132.852"/>
		<path fill="#1D2935" d="M56.548,201.037c-0.681,0.035-1.341,0.041-2.015-0.071c-1.065-0.179-1.542-0.539-1.437-0.856
			c0.119-0.353,0.521-0.441,0.885-0.521c0.537-0.116,1.922-0.228,2.275-0.218c1.043,0.029,1.797,0.029,2.768,0.275
			c0.44,0.112,0.83,0.388,0.748,0.707c-0.067,0.269-0.465,0.422-0.732,0.482C58.081,201.051,57.407,200.994,56.548,201.037"/>
		<path fill="none" stroke="#1D2935" stroke-width="2" stroke-linecap="round" stroke-miterlimit="10" d="M56.548,201.037
			c-0.681,0.035-1.341,0.041-2.015-0.071c-1.065-0.179-1.542-0.539-1.437-0.856c0.119-0.353,0.521-0.441,0.885-0.521
			c0.537-0.116,1.922-0.228,2.275-0.218c1.043,0.029,1.797,0.029,2.768,0.275c0.44,0.112,0.83,0.388,0.748,0.707
			c-0.067,0.269-0.465,0.422-0.732,0.482C58.081,201.051,57.407,200.994,56.548,201.037z"/>
		<rect x="53.155" y="200.329" fill="#1D2935" width="6.551" height="44.661"/>
		
			<rect x="53.155" y="200.329" fill="none" stroke="#1D2935" stroke-width="1.969" stroke-linecap="round" stroke-miterlimit="10" width="6.551" height="44.661"/>
		<path fill="#1D2935" d="M50.937,248.813c0.199-0.511,0.871-0.642,1.479-0.754c0.898-0.168,3.22-0.328,3.811-0.314
			c1.748,0.042,3.008,0.042,4.637,0.398c0.736,0.16,1.39,0.558,1.252,1.021"/>
		<path fill="none" stroke="#1D2935" stroke-width="2" stroke-linecap="round" stroke-miterlimit="10" d="M50.937,248.813
			c0.199-0.511,0.871-0.642,1.479-0.754c0.898-0.168,3.22-0.328,3.811-0.314c1.748,0.042,3.008,0.042,4.637,0.398
			c0.736,0.16,1.39,0.558,1.252,1.021"/>
		<polyline fill="#1D2935" points="62.46,249.25 62.46,245.25 50.624,245.25 50.624,249.25 		"/>
		<g opacity="0.6">
			<g>
				<g>
					<defs>
						<rect id="SVGID_29_" x="54.925" y="72.625" width="0.484" height="127.62"/>
					</defs>
					<clipPath id="SVGID_30_">
						<use xlink:href="#SVGID_29_"  overflow="visible"/>
					</clipPath>
					<polygon clip-path="url(#SVGID_30_)" fill="#FFFAFC" points="54.925,200.177 55.131,200.245 55.409,72.681 54.933,72.625 					
						"/>
				</g>
			</g>
		</g>
		<g opacity="0.6">
			<g>
				<g>
					<defs>
						<rect id="SVGID_31_" x="53.263" y="200.832" width="0.564" height="44.061"/>
					</defs>
					<clipPath id="SVGID_32_">
						<use xlink:href="#SVGID_31_"  overflow="visible"/>
					</clipPath>
					<polygon clip-path="url(#SVGID_32_)" fill="#FFFAFC" points="53.272,244.814 53.532,244.893 53.827,200.994 53.263,200.832 
											"/>
				</g>
			</g>
		</g>
		<polyline fill="#FFFAFC" points="51.244,249.25 51.375,245.945 51.013,245.805 51.013,249.12 		"/>
		<polyline fill="none" points="51.375,249.25 51.375,245.805 51.013,245.805 51.013,249.25 		"/>
		<path fill="#1D2935" d="M58.743,72.017c0,0.713-1.012,1.29-2.26,1.29s-2.262-0.577-2.262-1.29c0-0.712,1.014-1.289,2.262-1.289
			S58.743,71.305,58.743,72.017"/>
		
			<ellipse fill="none" stroke="#1D2935" stroke-width="1.055" stroke-miterlimit="10" cx="56.481" cy="72.017" rx="2.262" ry="1.29"/>
		<rect x="55.304" y="36.233" fill="#1D2935" width="2.174" height="35.474"/>
		<path fill="#1D2935" d="M58.567,62.879c0,0.547-0.952,0.991-2.131,0.991c-1.177,0-2.129-0.444-2.129-0.991
			c0-0.546,0.952-0.99,2.129-0.99C57.615,61.889,58.567,62.333,58.567,62.879"/>
		<path fill="#1D2935" d="M58.567,64.329c0,0.547-0.952,0.991-2.131,0.991c-1.177,0-2.129-0.443-2.129-0.991
			c0-0.547,0.952-0.991,2.129-0.991C57.615,63.338,58.567,63.782,58.567,64.329"/>
		<path fill="#1D2935" d="M58.567,65.617c0,0.547-0.952,0.99-2.131,0.99c-1.177,0-2.129-0.443-2.129-0.99
			c0-0.547,0.952-0.991,2.129-0.991C57.615,64.626,58.567,65.069,58.567,65.617"/>
		<rect x="54.868" y="34.995" fill="#1D2935" width="3.044" height="1.717"/>
		<path fill="none" stroke="#1D2935" stroke-width="2" stroke-linecap="round" stroke-miterlimit="10" d="M54.347,43.276
			c-1.058-4.634-3.551-7.098-3.484-9.667c0.025-1,0.349-1.833,1.453-2.215c1.181-0.408,2.019,0.506,2.26,1.042
			c0.24,0.536,0.229,1.578-0.662,2.036"/>
		<path fill="none" stroke="#1D2935" stroke-width="2.5" stroke-linecap="round" stroke-miterlimit="10" d="M28.166,46.482
			c-0.36-2.688,0.564-5.461,2.231-7.602c1.665-2.14,4.021-3.678,6.549-4.655c1.736-0.671,4.045-1.338,6.387-1.063
			c5.447,0.638,7.096,2.558,8.662,4.477c0.967,1.186,1.531,2.647,1.949,4.118c0.443,1.549,0.551,3.244,0.228,4.823
			c-0.433,2.111-1.635,4.04-3.348,5.348c-2.854,2.181-6.847,3.152-10.205,1.878c-1.865-0.708-3.44-2.157-4.298-3.96
			c-0.967-2.032-0.893-4.736,0.771-6.251c0.51-0.466,1.137-0.792,1.786-1.021c1.761-0.622,3.894-0.492,5.279,0.759
			c1.385,1.251,1.567,3.724,0.493,5.249c-0.522,0.74-2.262,2.021-3.957,0.522c-0.623-0.552-0.596-1.543-0.348-2.066
			c0.368-0.782,1.5-1.108,2.021-0.217"/>
		<path fill="none" stroke="#1D2935" stroke-width="2.5" stroke-linecap="round" stroke-miterlimit="10" d="M28.899,41.393
			c-0.507,2.081,0.185,5.118,1.889,6.417c0.884,0.672,2.125,1.014,3.115,0.511c0.582-0.296,1.015-0.869,1.139-1.508
			c0.126-0.641,0.053-1.362-0.374-1.854c-0.243-0.281-0.692-0.474-1.063-0.491c-0.369-0.016-1.052,0.258-1.14,0.867"/>
		<path fill="none" stroke="#1D2935" stroke-width="2" stroke-linecap="round" stroke-miterlimit="10" d="M45.304,41.625
			c0.521,6.173,1.473,11.306,4.834,14.821c1.057,1.104,2.516,2.055,4.02,1.78c0.39-0.07,0.781-0.238,1.016-0.558
			c0.235-0.319,0.254-0.815-0.033-1.087c-0.289-0.272-0.871-0.148-0.945,0.241"/>
		<path fill="none" stroke="#1D2935" stroke-width="2.108" stroke-linecap="round" stroke-miterlimit="10" d="M39.479,42.45
			c1.58-0.029,3.234-0.474,4.541-1.465c1.307-0.991,2.18-2.846,1.748-4.536c-0.447-1.76-2.078-2.819-3.726-2.845
			c-0.647-0.011-1.306,0.033-1.869,0.391s-1.188,1.081-1.348,1.783c-0.349,1.521,0.151,2.707,1.848,2.956
			c1.479,0.217,2.028-1.182,1.739-1.935"/>
		<path fill="#FFF188" d="M31.716,60.646c1.826,1.598,3.35,3.667,3.807,6.051c0.457,2.384-0.33,5.091-2.317,6.485
			c-1.075,0.755-2.479,1.152-3.17,2.271c-0.489,0.793-0.731,2.123-1.633,2.125c-0.904,0.001-1.146-1.33-1.638-2.125
			c-0.688-1.119-2.093-1.516-3.167-2.271c-1.987-1.395-2.774-4.102-2.317-6.485c0.456-2.384,1.979-4.453,3.806-6.051H31.716z"/>
		<path fill="none" stroke="#1D2935" stroke-width="2" stroke-linecap="round" stroke-miterlimit="10" d="M31.716,60.646
			c1.826,1.598,3.35,3.667,3.807,6.051c0.457,2.384-0.33,5.091-2.317,6.485c-1.075,0.755-2.479,1.152-3.17,2.271
			c-0.489,0.793-0.731,2.123-1.633,2.125c-0.904,0.001-1.146-1.33-1.638-2.125c-0.688-1.119-2.093-1.516-3.167-2.271
			c-1.987-1.395-2.774-4.102-2.317-6.485c0.456-2.384,1.979-4.453,3.806-6.051H31.716z"/>
		<path fill="#1D2935" d="M31.132,59.145c0.243-0.558,0.035-1.385-0.458-1.74c-0.726-0.522-1.479-0.55-2.089-0.55
			c-0.733,0-1.388,0.195-1.824,0.554c-0.489,0.402-0.761,0.983-0.522,1.804L31.132,59.145z"/>
		<path fill="#1D2935" d="M32.96,61.354c0.782-0.805,0.187-1.768-0.702-2.123c-1.305-0.522-2.659-0.551-3.756-0.551
			c-1.323,0-2.531,0.259-3.301,0.652c-1.022,0.522-1.104,1.222-0.673,2.043c0,0,2.499-0.326,4.151-0.326
			C30.918,61.049,32.96,61.354,32.96,61.354"/>
		<path fill="#FFFAFC" d="M31.772,61.677l-1.329-0.02c0,0,2.015,3.485,1.471,6.224c-0.693,3.494-2.519,4.996-2.519,4.996
			s3.225-0.584,4.331-3.163c1.092-2.54,0.465-3.807,0.183-4.733C33.627,64.054,31.772,61.677,31.772,61.677"/>
		<g opacity="0.6">
			<g>
				<g>
					<defs>
						<rect id="SVGID_33_" x="29.135" y="57.136" width="1.674" height="1.76"/>
					</defs>
					<clipPath id="SVGID_34_">
						<use xlink:href="#SVGID_33_"  overflow="visible"/>
					</clipPath>
					<path clip-path="url(#SVGID_34_)" fill="#FFFAFC" d="M29.135,57.136c0,0,0.762,0.13,1.175,0.391
						c0.413,0.261,0.499,0.805,0.499,1c0,0.195-0.021,0.369-0.021,0.369h-0.305c0,0,0-0.579-0.42-1.042
						C29.764,57.523,29.135,57.136,29.135,57.136"/>
				</g>
			</g>
		</g>
		<g opacity="0.6">
			<g>
				<g>
					<defs>
						<rect id="SVGID_35_" x="30.498" y="59.143" width="2.345" height="1.906"/>
					</defs>
					<clipPath id="SVGID_36_">
						<use xlink:href="#SVGID_35_"  overflow="visible"/>
					</clipPath>
					<path clip-path="url(#SVGID_36_)" fill="#FFFAFC" d="M30.823,59.143c0,0,1.638,0.297,1.92,0.949
						c0.283,0.652-0.131,0.957-0.131,0.957l-0.477-0.065c0,0,0.265-0.304,0.035-0.797c-0.253-0.543-1.673-1.022-1.673-1.022
						L30.823,59.143z"/>
				</g>
			</g>
		</g>
		<path fill="none" stroke="#1D2935" stroke-width="2.5" stroke-linecap="round" stroke-miterlimit="10" d="M28.196,44.494
			c0.033,0.649,0.023,1.301-0.027,1.95c-0.032,0.414-0.089,0.843-0.318,1.188c-0.238,0.357-0.639,0.58-1.053,0.688
			c-0.508,0.131-1.073,0.099-1.522-0.175c-0.446-0.272-0.746-0.808-0.663-1.326"/>
		<path fill="#1D2935" d="M28.233,44.667c0,0-0.765,3.158-0.6,4.434c0.165,1.275,0.832,1.914,1.527,1.247
			c0.695-0.666,0-4.55-0.291-5.304C28.581,44.291,28.233,44.667,28.233,44.667"/>
		
			<line fill="none" stroke="#1D2935" stroke-width="2" stroke-linecap="round" stroke-miterlimit="10" x1="28.668" y1="50.087" x2="28.668" y2="53.855"/>
		<path fill="none" stroke="#1D2935" stroke-width="2" stroke-linecap="round" stroke-miterlimit="10" d="M28.644,56.984
			c-0.588-0.674-0.702-1.389-0.793-2.188c-0.12-1.032,1.521-1.228,1.51-0.119c-0.009,0.892-0.202,1.605-0.695,2.347"/>
		<g opacity="0.6">
			<g>
				<g>
					<defs>
						<rect id="SVGID_37_" x="54.39" y="70.969" width="0.914" height="1.967"/>
					</defs>
					<clipPath id="SVGID_38_">
						<use xlink:href="#SVGID_37_"  overflow="visible"/>
					</clipPath>
					<path clip-path="url(#SVGID_38_)" fill="#FFFAFC" d="M55.304,72.936c0,0-0.914-0.293-0.914-0.963
						c0-0.574,0.869-1.004,0.869-1.004s-0.348,0.586-0.348,1.004C54.911,72.5,55.304,72.936,55.304,72.936"/>
				</g>
			</g>
		</g>
		<g opacity="0.6">
			<g>
				<g>
					<defs>
						<rect id="SVGID_39_" x="55.438" y="66.483" width="0.26" height="4.209"/>
					</defs>
					<clipPath id="SVGID_40_">
						<use xlink:href="#SVGID_39_"  overflow="visible"/>
					</clipPath>
					<polygon clip-path="url(#SVGID_40_)" fill="#FFFAFC" points="55.534,70.693 55.463,70.686 55.438,66.483 55.698,66.523 					
						"/>
				</g>
			</g>
		</g>
		<g opacity="0.6">
			<g>
				<g>
					<defs>
						<rect id="SVGID_41_" x="54.534" y="65.064" width="1.029" height="1.231"/>
					</defs>
					<clipPath id="SVGID_42_">
						<use xlink:href="#SVGID_41_"  overflow="visible"/>
					</clipPath>
					<path clip-path="url(#SVGID_42_)" fill="#FFFAFC" d="M54.882,65.064c0,0-0.333,0.217-0.348,0.478
						c-0.016,0.261,0.195,0.479,0.428,0.587c0.232,0.109,0.602,0.167,0.602,0.167s-0.58-0.362-0.672-0.703
						C54.795,65.252,54.882,65.064,54.882,65.064"/>
				</g>
			</g>
		</g>
		<g opacity="0.6">
			<g>
				<g>
					<defs>
						<rect id="SVGID_43_" x="54.534" y="63.774" width="1.027" height="1.232"/>
					</defs>
					<clipPath id="SVGID_44_">
						<use xlink:href="#SVGID_43_"  overflow="visible"/>
					</clipPath>
					<path clip-path="url(#SVGID_44_)" fill="#FFFAFC" d="M54.882,63.774c0,0-0.333,0.217-0.348,0.478
						c-0.016,0.261,0.195,0.478,0.428,0.587c0.232,0.108,0.602,0.167,0.602,0.167s-0.58-0.362-0.672-0.703
						C54.795,63.962,54.882,63.774,54.882,63.774"/>
				</g>
			</g>
		</g>
		<g opacity="0.6">
			<g>
				<g>
					<defs>
						<rect id="SVGID_45_" x="54.534" y="62.347" width="1.027" height="1.231"/>
					</defs>
					<clipPath id="SVGID_46_">
						<use xlink:href="#SVGID_45_"  overflow="visible"/>
					</clipPath>
					<path clip-path="url(#SVGID_46_)" fill="#FFFAFC" d="M54.882,62.347c0,0-0.333,0.217-0.348,0.478
						c-0.016,0.261,0.195,0.478,0.428,0.587c0.232,0.108,0.602,0.167,0.602,0.167s-0.58-0.362-0.672-0.702
						C54.795,62.535,54.882,62.347,54.882,62.347"/>
				</g>
			</g>
		</g>
		<g opacity="0.6">
			<g>
				<g>
					<defs>
						<rect id="SVGID_47_" x="55.435" y="36.667" width="0.183" height="25.39"/>
					</defs>
					<clipPath id="SVGID_48_">
						<use xlink:href="#SVGID_47_"  overflow="visible"/>
					</clipPath>
					<polygon clip-path="url(#SVGID_48_)" fill="#FFFAFC" points="55.563,62.057 55.435,62.057 55.435,36.668 55.615,36.667 					
						"/>
				</g>
			</g>
		</g>
		<g opacity="0.6">
			<g>
				<g>
					<defs>
						<rect id="SVGID_49_" x="54.961" y="35.082" width="0.196" height="1.565"/>
					</defs>
					<clipPath id="SVGID_50_">
						<use xlink:href="#SVGID_49_"  overflow="visible"/>
					</clipPath>
					<polygon clip-path="url(#SVGID_50_)" fill="#FFFAFC" points="55.074,36.646 54.967,36.646 54.962,35.089 55.157,35.082 					
						"/>
				</g>
			</g>
		</g>
		<g opacity="0.6">
			<g>
				<g>
					<defs>
						<rect id="SVGID_51_" x="54.954" y="31.886" width="1.064" height="2.746"/>
					</defs>
					<clipPath id="SVGID_52_">
						<use xlink:href="#SVGID_51_"  overflow="visible"/>
					</clipPath>
					<path clip-path="url(#SVGID_52_)" fill="#FFFAFC" d="M54.954,31.886c0,0,0.652,0.761,0.826,1.152
						c0.175,0.391,0.195,1.594,0.195,1.594s0.088-1.221,0.015-1.55C55.903,32.691,55.28,32.18,54.954,31.886"/>
				</g>
			</g>
		</g>
		<g opacity="0.6">
			<g>
				<g>
					<defs>
						<rect id="SVGID_53_" x="52.045" y="20.148" width="3.765" height="9.863"/>
					</defs>
					<clipPath id="SVGID_54_">
						<use xlink:href="#SVGID_53_"  overflow="visible"/>
					</clipPath>
					<path clip-path="url(#SVGID_54_)" fill="#FFFAFC" d="M55.749,20.148c0,0-0.009,1.479-0.023,1.816
						c-0.021,0.549-0.141,0.761-0.314,0.978c-0.098,0.125-0.395,0.337-0.629,0.498c-0.186,0.104-0.399,0.219-0.652,0.346
						c-0.627,0.313-1.324,0.602-1.805,1.775c-0.479,1.173-0.385,2.935,0.609,4.108c0.088,0.105,0.18,0.222,0.272,0.342
						c-0.456-1.414-0.616-2.535-0.164-3.994c0.284-0.917,1.015-1.749,1.601-2.302c0.021-0.015,0.041-0.029,0.062-0.045
						c0.369-0.272,0.61-0.479,0.769-0.65c0.002,0,0.004-0.002,0.004-0.002l-0.002,0.002c0.315-0.339,0.308-0.524,0.328-0.742
						C55.834,21.953,55.749,20.148,55.749,20.148"/>
				</g>
			</g>
		</g>
		<g opacity="0.6">
			<g>
				<g>
					<defs>
						<rect id="SVGID_55_" x="54.478" y="16.823" width="1.305" height="2.587"/>
					</defs>
					<clipPath id="SVGID_56_">
						<use xlink:href="#SVGID_55_"  overflow="visible"/>
					</clipPath>
					<path clip-path="url(#SVGID_56_)" fill="#FFFAFC" d="M55.78,16.823c0,0-1.305,0.283-1.305,1.282s1.217,1.304,1.217,1.304
						s-0.891-0.479-0.912-1.347C54.763,17.302,55.78,16.823,55.78,16.823"/>
				</g>
			</g>
		</g>
		<line fill="none" stroke="#FFF188" stroke-miterlimit="10" x1="17.026" y1="71.713" x2="13.697" y2="73.377"/>
		<line fill="none" stroke="#FFF188" stroke-miterlimit="10" x1="22.467" y1="79.936" x2="21.318" y2="83.15"/>
		<line fill="none" stroke="#FFF188" stroke-miterlimit="10" x1="19.511" y1="76.152" x2="16.394" y2="78.186"/>
		<line fill="none" stroke="#FFF188" stroke-miterlimit="10" x1="43.058" y1="73.281" x2="39.823" y2="71.439"/>
		<line fill="none" stroke="#FFF188" stroke-miterlimit="10" x1="39.642" y1="78.918" x2="36.448" y2="77.003"/>
		<line fill="none" stroke="#FFF188" stroke-miterlimit="10" x1="32.745" y1="83.087" x2="31.471" y2="79.184"/>
	</g>
	<g id="路燈_x28_亮_x29_">
		<path fill="#1D2935" d="M60.513,24.738c-0.977-1.72-3.158-1.301-3.299-2.557c-0.139-1.254-0.046-2.555-0.046-2.555
			s1.255-0.465,1.255-1.719c0-1.068-1.242-1.388-2.025-1.388c-0.819,0-2.027,0.32-2.027,1.388c0,1.254,1.254,1.719,1.254,1.719
			s0.094,1.301-0.046,2.555c-0.14,1.255-2.323,0.837-3.3,2.557c-0.975,1.719-1.066,4.135,1.395,6.226
			c2.463,2.091,2.186,2.881,2.23,3.811c0.047,0.929,0,1.487,0,1.487l0.429,0.035v0.011l0.065-0.006l0.063,0.006v-0.011l0.427-0.035
			c0,0-0.045-0.558,0-1.487c0.049-0.93-0.23-1.72,2.23-3.811C61.581,28.874,61.489,26.458,60.513,24.738"/>
		<path fill="#D6C954" d="M4.759,109.52c0-9.189,10.697-16.638,23.893-16.638c13.197,0,23.892,7.449,23.892,16.638"/>
		<path fill="#D6C954" d="M52.543,109.52c0,9.188-10.696,16.638-23.892,16.638s-23.892-7.45-23.892-16.638"/>
		<path fill="none" d="M4.759,109.519c0,9.189,10.697,16.638,23.891,16.638c13.197,0,23.894-7.449,23.894-16.638
			c0-9.188-10.695-16.637-23.894-16.637C15.456,92.882,4.759,100.331,4.759,109.519"/>
		<path fill="none" stroke="#1D2935" stroke-width="2" stroke-linecap="round" stroke-miterlimit="10" d="M4.759,109.52
			c0-9.189,10.697-16.638,23.893-16.638c13.197,0,23.892,7.449,23.892,16.638c0,9.188-10.695,16.638-23.892,16.638
			C15.456,126.158,4.759,118.708,4.759,109.52"/>
		<path fill="none" stroke="#1D2935" stroke-linecap="round" stroke-miterlimit="10" d="M22.094,97.455
			c0.454-1.265,1.725-2.192,3.069-2.235c0.708-0.022,1.473,0.221,1.868,0.809c0.354,0.53,0.441,1.286,0.196,1.874
			c-0.262,0.622-0.958,1.131-1.629,1.072c-0.33-0.03-0.664-0.156-0.886-0.461c-0.162-0.221-0.307-0.582-0.18-0.931
			c0.124-0.347,0.652-0.722,1.026-0.375"/>
		<path fill="none" stroke="#1D2935" stroke-linecap="round" stroke-miterlimit="10" d="M28.421,100.25
			c-0.423-0.911-1.513-1.457-2.497-1.249c-0.981,0.208-1.749,1.05-1.768,2.055c-0.002,0.184,0.015,0.487,0.098,0.708
			c0.374,0.999,1.106,1.068,1.557,1.029c0.471-0.042,0.833-0.246,1.084-0.584c0.234-0.319,0.221-0.736,0.014-1.097
			c-0.188-0.325-0.736-0.417-1.009-0.122"/>
		<path fill="none" stroke="#1D2935" stroke-linecap="round" stroke-miterlimit="10" d="M34.83,97.455
			c-0.453-1.265-1.726-2.192-3.068-2.235c-0.709-0.022-1.475,0.221-1.869,0.809c-0.354,0.53-0.441,1.286-0.196,1.874
			c0.262,0.622,0.958,1.131,1.629,1.072c0.33-0.03,0.664-0.156,0.887-0.461c0.16-0.221,0.307-0.582,0.18-0.931
			c-0.125-0.347-0.652-0.722-1.027-0.375"/>
		<path fill="none" stroke="#1D2935" stroke-linecap="round" stroke-miterlimit="10" d="M28.503,100.25
			c0.423-0.911,1.513-1.457,2.497-1.249c0.981,0.208,1.749,1.05,1.768,2.055c0.002,0.184-0.014,0.487-0.098,0.708
			c-0.374,0.999-1.107,1.068-1.556,1.029c-0.473-0.042-0.834-0.246-1.084-0.584c-0.235-0.319-0.221-0.736-0.015-1.097
			c0.189-0.325,0.736-0.417,1.01-0.122"/>
		<path fill="none" stroke="#1D2935" stroke-linecap="round" stroke-miterlimit="10" d="M28.461,100.048
			c-0.19-0.982-0.916-1.804-1.064-2.793c-0.05-0.336-0.031-0.684,0.057-1.012c0.085-0.321,0.216-0.67,0.454-0.901
			c0.235-0.228,0.667-0.323,0.946-0.153c0.249,0.153,0.402,0.506,0.471,0.695c0.194,0.528,0.127,1.009,0.07,1.458
			c-0.084,0.667-0.772,2.28-0.903,2.737"/>
		<path fill="none" stroke="#1D2935" stroke-linecap="round" stroke-miterlimit="10" d="M22.094,121.665
			c0.454,1.265,1.725,2.192,3.069,2.235c0.708,0.023,1.473-0.222,1.868-0.81c0.354-0.529,0.441-1.285,0.196-1.873
			c-0.262-0.623-0.958-1.131-1.629-1.071c-0.33,0.029-0.664,0.155-0.886,0.46c-0.162,0.221-0.307,0.582-0.18,0.931
			c0.124,0.348,0.652,0.723,1.026,0.375"/>
		<path fill="none" stroke="#1D2935" stroke-linecap="round" stroke-miterlimit="10" d="M28.421,118.869
			c-0.423,0.911-1.513,1.457-2.497,1.249c-0.981-0.208-1.749-1.051-1.768-2.055c-0.002-0.184,0.015-0.486,0.098-0.709
			c0.374-0.998,1.106-1.067,1.557-1.027c0.471,0.042,0.833,0.246,1.084,0.583c0.234,0.32,0.221,0.736,0.014,1.097
			c-0.188,0.327-0.736,0.417-1.009,0.123"/>
		<path fill="none" stroke="#1D2935" stroke-linecap="round" stroke-miterlimit="10" d="M34.83,121.665
			c-0.453,1.265-1.726,2.192-3.068,2.235c-0.709,0.023-1.475-0.222-1.869-0.81c-0.354-0.529-0.441-1.285-0.196-1.873
			c0.262-0.623,0.958-1.131,1.629-1.071c0.33,0.029,0.664,0.155,0.887,0.46c0.16,0.221,0.307,0.582,0.18,0.931
			c-0.125,0.348-0.652,0.723-1.027,0.375"/>
		<path fill="none" stroke="#1D2935" stroke-linecap="round" stroke-miterlimit="10" d="M28.503,118.869
			c0.423,0.911,1.513,1.457,2.497,1.249c0.981-0.208,1.749-1.051,1.768-2.055c0.002-0.184-0.014-0.486-0.098-0.709
			c-0.374-0.998-1.107-1.067-1.556-1.027c-0.473,0.042-0.834,0.246-1.084,0.583c-0.235,0.32-0.221,0.736-0.015,1.097
			c0.189,0.327,0.736,0.417,1.01,0.123"/>
		<path fill="none" stroke="#1D2935" stroke-linecap="round" stroke-miterlimit="10" d="M28.461,119.071
			c-0.19,0.981-0.916,1.804-1.064,2.792c-0.05,0.337-0.031,0.684,0.057,1.013c0.085,0.32,0.216,0.669,0.454,0.9
			c0.235,0.229,0.667,0.324,0.946,0.153c0.249-0.153,0.402-0.506,0.471-0.695c0.194-0.528,0.127-1.008,0.07-1.458
			c-0.084-0.666-0.772-2.28-0.903-2.736"/>
		<polyline fill="#1D2935" points="4.672,90.044 54.794,90.044 54.794,89.526 4.672,89.526 		"/>
		<polyline fill="none" stroke="#1D2935" stroke-width="0.75" stroke-miterlimit="10" points="4.672,90.044 54.794,90.044 
			54.794,89.526 4.672,89.526 		"/>
		<path fill="#1D2935" d="M14.849,88.033c-0.39,0-0.707,0.317-0.707,0.707c0,0.39,0.317,0.707,0.707,0.707
			c0.391,0,0.707-0.317,0.707-0.707C15.556,88.35,15.239,88.033,14.849,88.033 M14.849,89.171c-0.239,0-0.432-0.194-0.432-0.432
			c0-0.239,0.192-0.433,0.432-0.433c0.238,0,0.432,0.193,0.432,0.433C15.28,88.978,15.087,89.171,14.849,89.171"/>
		<path fill="none" stroke="#1D2935" stroke-width="0.75" stroke-miterlimit="10" d="M14.849,88.033
			c-0.39,0-0.707,0.317-0.707,0.707c0,0.39,0.317,0.707,0.707,0.707c0.391,0,0.707-0.317,0.707-0.707
			C15.556,88.35,15.239,88.033,14.849,88.033z M14.849,89.171c-0.239,0-0.432-0.194-0.432-0.432c0-0.239,0.192-0.433,0.432-0.433
			c0.238,0,0.432,0.193,0.432,0.433C15.28,88.978,15.087,89.171,14.849,89.171z"/>
		<path fill="#1D2935" d="M14.849,98.443c-0.39,0-0.707,0.317-0.707,0.707c0,0.389,0.317,0.707,0.707,0.707
			c0.391,0,0.707-0.318,0.707-0.707C15.556,98.76,15.239,98.443,14.849,98.443 M14.849,99.583c-0.239,0-0.432-0.195-0.432-0.433
			c0-0.238,0.192-0.432,0.432-0.432c0.238,0,0.432,0.194,0.432,0.432C15.28,99.388,15.087,99.583,14.849,99.583"/>
		<path fill="none" stroke="#1D2935" stroke-width="0.75" stroke-miterlimit="10" d="M14.849,98.443
			c-0.39,0-0.707,0.317-0.707,0.707c0,0.389,0.317,0.707,0.707,0.707c0.391,0,0.707-0.318,0.707-0.707
			C15.556,98.76,15.239,98.443,14.849,98.443z M14.849,99.583c-0.239,0-0.432-0.195-0.432-0.433c0-0.238,0.192-0.432,0.432-0.432
			c0.238,0,0.432,0.194,0.432,0.432C15.28,99.388,15.087,99.583,14.849,99.583z"/>
		<rect x="14.637" y="89.195" fill="#1D2935" width="0.356" height="9.366"/>
		
			<rect x="14.637" y="89.195" fill="none" stroke="#1D2935" stroke-width="0.937" stroke-miterlimit="10" width="0.356" height="9.366"/>
		<path fill="#1D2935" d="M42.388,98.443c-0.392,0-0.707,0.317-0.707,0.707c0,0.389,0.315,0.707,0.707,0.707
			c0.389,0,0.707-0.318,0.707-0.707C43.095,98.76,42.776,98.443,42.388,98.443 M42.388,99.583c-0.24,0-0.434-0.195-0.434-0.433
			c0-0.238,0.193-0.432,0.434-0.432c0.237,0,0.432,0.194,0.432,0.432C42.819,99.388,42.625,99.583,42.388,99.583"/>
		<path fill="none" stroke="#1D2935" stroke-width="0.75" stroke-miterlimit="10" d="M42.388,98.443
			c-0.392,0-0.707,0.317-0.707,0.707c0,0.389,0.315,0.707,0.707,0.707c0.389,0,0.707-0.318,0.707-0.707
			C43.095,98.76,42.776,98.443,42.388,98.443z M42.388,99.583c-0.24,0-0.434-0.195-0.434-0.433c0-0.238,0.193-0.432,0.434-0.432
			c0.237,0,0.432,0.194,0.432,0.432C42.819,99.388,42.625,99.583,42.388,99.583z"/>
		<rect x="42.175" y="89.195" fill="#1D2935" width="0.355" height="9.432"/>
		
			<rect x="42.175" y="89.195" fill="none" stroke="#1D2935" stroke-width="0.941" stroke-miterlimit="10" width="0.355" height="9.432"/>
		<path fill="none" stroke="#1D2935" stroke-width="2.023" stroke-linecap="round" stroke-miterlimit="10" d="M55.124,77.795
			c0.107,1.789-0.012,3.616-0.309,5.384c-0.295,1.768-1.03,3.521-2.375,4.739c-1.344,1.217-3.362,1.804-5.08,1.179
			c-1.805-0.655-2.965-2.573-2.918-4.453c0.027-1.14,0.356-2.369,1.182-3.175c0.979-0.956,2.325-1.175,3.439-0.841
			c1.113,0.335,1.914,1.55,1.862,2.688c-0.032,0.715-0.436,1.422-1.079,1.765c-0.643,0.344-1.512,0.273-2.043-0.22"/>
		<path fill="none" stroke="#1D2935" stroke-width="2.023" stroke-linecap="round" stroke-miterlimit="10" d="M40.124,89.665
			c2.49-0.319,3.036-0.916,3.633-1.646c0.711-0.87,0.656-1.553,0.711-1.942c0.146-1.011-0.718-2.283-1.673-2.698
			c-0.953-0.415-2.171-0.138-2.842,0.645c-0.509,0.596-0.683,1.486-0.315,2.176c0.363,0.689,1.309,1.064,2.021,0.719
			c0.319-0.156,0.577-0.448,0.651-0.791c0.109-0.522-0.152-1.21-0.806-1.124"/>
		<path fill="none" stroke="#1D2935" stroke-width="2" stroke-linecap="round" stroke-miterlimit="10" d="M60.612,51.465
			c-1.312-1.002-2.008-2.629-2.326-4.249c-0.432-2.19-0.264-4.496,0.479-6.601c0.855-2.422,2.998-4.29,3.053-6.858
			c0.021-1-0.26-1.848-1.348-2.283c-1.156-0.462-2.037,0.411-2.305,0.935c-0.268,0.524-0.305,1.565,0.564,2.065"/>
		<path fill="none" stroke="#1D2935" stroke-width="2" stroke-linecap="round" stroke-miterlimit="10" d="M58.66,48.858
			c-0.761,0.934-1.015,2.203-0.917,3.402c0.099,1.201,0.516,2.35,0.98,3.461c0.168,0.399,0.344,0.807,0.371,1.24
			c0.022,0.433-0.136,0.905-0.505,1.131c-0.37,0.227-0.952,0.084-1.077-0.33"/>
		<path fill="#1D2935" d="M56.865,246.488c-1.142,0.051-2.246,0.059-3.373-0.104c-1.785-0.258-2.583-0.778-2.403-1.235
			c0.2-0.51,0.87-0.642,1.48-0.754c0.897-0.168,3.22-0.328,3.81-0.315c1.749,0.043,3.009,0.043,4.636,0.399
			c0.737,0.16,1.391,0.558,1.254,1.021c-0.115,0.385-0.779,0.608-1.229,0.697C59.433,246.508,58.304,246.427,56.865,246.488"/>
		<path fill="none" stroke="#1D2935" stroke-width="2" stroke-linecap="round" stroke-miterlimit="10" d="M56.865,246.488
			c-1.142,0.051-2.246,0.059-3.373-0.104c-1.785-0.258-2.583-0.778-2.403-1.235c0.2-0.51,0.87-0.642,1.48-0.754
			c0.897-0.168,3.22-0.328,3.81-0.315c1.749,0.043,3.009,0.043,4.636,0.399c0.737,0.16,1.391,0.558,1.254,1.021
			c-0.115,0.385-0.779,0.608-1.229,0.697C59.433,246.508,58.304,246.427,56.865,246.488z"/>
		<rect x="54.896" y="71.318" fill="#1D2935" width="3.176" height="132.852"/>
		<rect x="54.896" y="71.318" fill="none" stroke="#1D2935" stroke-miterlimit="10" width="3.176" height="132.852"/>
		<path fill="#1D2935" d="M56.673,200.996c-0.681,0.035-1.341,0.041-2.015-0.071c-1.065-0.179-1.542-0.539-1.437-0.856
			c0.119-0.353,0.521-0.441,0.885-0.521c0.537-0.116,1.922-0.228,2.275-0.218c1.043,0.029,1.797,0.029,2.768,0.275
			c0.44,0.112,0.83,0.388,0.748,0.707c-0.067,0.269-0.465,0.422-0.732,0.482C58.206,201.01,57.532,200.952,56.673,200.996"/>
		<path fill="none" stroke="#1D2935" stroke-width="2" stroke-linecap="round" stroke-miterlimit="10" d="M56.673,200.996
			c-0.681,0.035-1.341,0.041-2.015-0.071c-1.065-0.179-1.542-0.539-1.437-0.856c0.119-0.353,0.521-0.441,0.885-0.521
			c0.537-0.116,1.922-0.228,2.275-0.218c1.043,0.029,1.797,0.029,2.768,0.275c0.44,0.112,0.83,0.388,0.748,0.707
			c-0.067,0.269-0.465,0.422-0.732,0.482C58.206,201.01,57.532,200.952,56.673,200.996z"/>
		<rect x="53.28" y="200.287" fill="#1D2935" width="6.551" height="44.661"/>
		
			<rect x="53.28" y="200.287" fill="none" stroke="#1D2935" stroke-width="1.969" stroke-linecap="round" stroke-miterlimit="10" width="6.551" height="44.661"/>
		<polyline fill="#1D2935" points="62.585,249.208 62.585,245.208 50.749,245.208 50.749,249.208 		"/>
		<g opacity="0.6">
			<g>
				<g>
					<defs>
						<rect id="SVGID_57_" x="55.05" y="72.583" width="0.484" height="127.62"/>
					</defs>
					<clipPath id="SVGID_58_">
						<use xlink:href="#SVGID_57_"  overflow="visible"/>
					</clipPath>
					<polygon clip-path="url(#SVGID_58_)" fill="#FFFAFC" points="55.05,200.135 55.256,200.203 55.534,72.64 55.058,72.583 					
						"/>
				</g>
			</g>
		</g>
		<g opacity="0.6">
			<g>
				<g>
					<defs>
						<rect id="SVGID_59_" x="53.388" y="200.791" width="0.564" height="44.061"/>
					</defs>
					<clipPath id="SVGID_60_">
						<use xlink:href="#SVGID_59_"  overflow="visible"/>
					</clipPath>
					<polygon clip-path="url(#SVGID_60_)" fill="#FFFAFC" points="53.397,244.773 53.657,244.85 53.952,200.952 53.388,200.791 
											"/>
				</g>
			</g>
		</g>
		<polyline fill="#FFFAFC" points="51.369,249.208 51.5,245.905 51.138,245.764 51.138,249.078 		"/>
		<polyline fill="none" points="51.5,249.208 51.5,245.764 51.138,245.764 51.138,249.208 		"/>
		<path fill="#1D2935" d="M58.868,71.976c0,0.713-1.012,1.29-2.26,1.29s-2.262-0.577-2.262-1.29c0-0.712,1.014-1.289,2.262-1.289
			S58.868,71.264,58.868,71.976"/>
		
			<ellipse fill="none" stroke="#1D2935" stroke-width="1.055" stroke-miterlimit="10" cx="56.606" cy="71.976" rx="2.262" ry="1.29"/>
		<rect x="55.429" y="36.192" fill="#1D2935" width="2.174" height="35.474"/>
		<path fill="#1D2935" d="M58.692,62.838c0,0.547-0.952,0.991-2.131,0.991c-1.177,0-2.129-0.444-2.129-0.991
			c0-0.546,0.952-0.99,2.129-0.99C57.74,61.848,58.692,62.292,58.692,62.838"/>
		<path fill="#1D2935" d="M58.692,64.287c0,0.547-0.952,0.991-2.131,0.991c-1.177,0-2.129-0.443-2.129-0.991
			c0-0.547,0.952-0.991,2.129-0.991C57.74,63.296,58.692,63.74,58.692,64.287"/>
		<path fill="#1D2935" d="M58.692,65.575c0,0.547-0.952,0.99-2.131,0.99c-1.177,0-2.129-0.443-2.129-0.99
			c0-0.547,0.952-0.991,2.129-0.991C57.74,64.584,58.692,65.028,58.692,65.575"/>
		<rect x="54.993" y="34.954" fill="#1D2935" width="3.044" height="1.717"/>
		<path fill="none" stroke="#1D2935" stroke-width="2" stroke-linecap="round" stroke-miterlimit="10" d="M54.472,43.235
			c-1.058-4.634-3.551-7.098-3.484-9.667c0.025-1,0.349-1.833,1.453-2.215c1.181-0.408,2.019,0.506,2.26,1.042
			c0.24,0.536,0.229,1.578-0.662,2.036"/>
		<path fill="none" stroke="#1D2935" stroke-width="2.5" stroke-linecap="round" stroke-miterlimit="10" d="M28.291,46.44
			c-0.36-2.688,0.564-5.461,2.231-7.602c1.665-2.14,4.021-3.678,6.549-4.655c1.736-0.671,4.045-1.338,6.387-1.063
			c5.447,0.638,7.096,2.558,8.662,4.477c0.967,1.186,1.531,2.647,1.949,4.118c0.443,1.549,0.551,3.244,0.228,4.823
			c-0.433,2.111-1.635,4.04-3.348,5.348c-2.854,2.181-6.847,3.152-10.205,1.878c-1.865-0.708-3.44-2.157-4.298-3.96
			c-0.967-2.032-0.893-4.736,0.771-6.251c0.51-0.466,1.137-0.792,1.786-1.021c1.761-0.622,3.894-0.492,5.279,0.759
			c1.385,1.251,1.567,3.724,0.493,5.249c-0.522,0.74-2.262,2.021-3.957,0.522c-0.623-0.552-0.596-1.543-0.348-2.066
			c0.368-0.782,1.5-1.108,2.021-0.217"/>
		<path fill="none" stroke="#1D2935" stroke-width="2.5" stroke-linecap="round" stroke-miterlimit="10" d="M29.024,41.351
			c-0.507,2.081,0.185,5.118,1.889,6.417c0.884,0.672,2.125,1.014,3.115,0.511c0.582-0.296,1.015-0.869,1.139-1.508
			c0.126-0.641,0.053-1.362-0.374-1.854c-0.243-0.281-0.692-0.474-1.063-0.491c-0.369-0.016-1.052,0.258-1.14,0.867"/>
		<path fill="none" stroke="#1D2935" stroke-width="2" stroke-linecap="round" stroke-miterlimit="10" d="M45.429,41.583
			c0.521,6.173,1.473,11.306,4.834,14.821c1.057,1.104,2.516,2.055,4.02,1.78c0.39-0.07,0.781-0.238,1.016-0.558
			c0.235-0.319,0.254-0.815-0.033-1.087c-0.289-0.272-0.871-0.148-0.945,0.241"/>
		<path fill="none" stroke="#1D2935" stroke-width="2.108" stroke-linecap="round" stroke-miterlimit="10" d="M39.604,42.409
			c1.58-0.029,3.234-0.474,4.541-1.465c1.307-0.991,2.18-2.846,1.748-4.536c-0.447-1.76-2.078-2.819-3.726-2.845
			c-0.647-0.011-1.306,0.033-1.869,0.391s-1.188,1.081-1.348,1.783c-0.349,1.521,0.151,2.707,1.848,2.956
			c1.479,0.217,2.028-1.182,1.739-1.935"/>
		<path fill="#FFE54A" d="M31.841,60.604c1.826,1.598,3.35,3.667,3.807,6.051c0.457,2.384-0.33,5.091-2.317,6.485
			c-1.075,0.755-2.479,1.152-3.17,2.271c-0.489,0.793-0.731,2.123-1.633,2.125c-0.904,0.001-1.146-1.33-1.638-2.125
			c-0.688-1.119-2.093-1.516-3.167-2.271c-1.987-1.395-2.774-4.102-2.317-6.485c0.456-2.384,1.979-4.453,3.806-6.051H31.841z"/>
		<path fill="none" stroke="#1D2935" stroke-width="2" stroke-linecap="round" stroke-miterlimit="10" d="M31.841,60.604
			c1.826,1.598,3.35,3.667,3.807,6.051c0.457,2.384-0.33,5.091-2.317,6.485c-1.075,0.755-2.479,1.152-3.17,2.271
			c-0.489,0.793-0.731,2.123-1.633,2.125c-0.904,0.001-1.146-1.33-1.638-2.125c-0.688-1.119-2.093-1.516-3.167-2.271
			c-1.987-1.395-2.774-4.102-2.317-6.485c0.456-2.384,1.979-4.453,3.806-6.051H31.841z"/>
		<path fill="#1D2935" d="M31.257,59.103c0.243-0.558,0.035-1.385-0.458-1.74c-0.726-0.522-1.479-0.55-2.089-0.55
			c-0.733,0-1.388,0.195-1.824,0.554c-0.489,0.402-0.761,0.983-0.522,1.804L31.257,59.103z"/>
		<path fill="#1D2935" d="M33.085,61.312c0.782-0.805,0.188-1.768-0.702-2.123c-1.305-0.522-2.659-0.551-3.756-0.551
			c-1.323,0-2.531,0.259-3.301,0.652c-1.022,0.522-1.104,1.222-0.673,2.043c0,0,2.499-0.326,4.151-0.326
			C31.043,61.008,33.085,61.312,33.085,61.312"/>
		<path fill="#FFFAFC" d="M31.897,61.636l-1.329-0.02c0,0,2.015,3.485,1.471,6.224c-0.693,3.494-2.519,4.996-2.519,4.996
			s3.225-0.584,4.331-3.163c1.092-2.54,0.465-3.807,0.183-4.733C33.752,64.013,31.897,61.636,31.897,61.636"/>
		<g opacity="0.6">
			<g>
				<g>
					<defs>
						<rect id="SVGID_61_" x="29.26" y="57.095" width="1.674" height="1.76"/>
					</defs>
					<clipPath id="SVGID_62_">
						<use xlink:href="#SVGID_61_"  overflow="visible"/>
					</clipPath>
					<path clip-path="url(#SVGID_62_)" fill="#FFFAFC" d="M29.26,57.095c0,0,0.762,0.13,1.175,0.391
						c0.413,0.261,0.499,0.805,0.499,1c0,0.195-0.021,0.369-0.021,0.369h-0.305c0,0,0-0.579-0.42-1.042
						C29.889,57.481,29.26,57.095,29.26,57.095"/>
				</g>
			</g>
		</g>
		<g opacity="0.6">
			<g>
				<g>
					<defs>
						<rect id="SVGID_63_" x="30.623" y="59.102" width="2.345" height="1.906"/>
					</defs>
					<clipPath id="SVGID_64_">
						<use xlink:href="#SVGID_63_"  overflow="visible"/>
					</clipPath>
					<path clip-path="url(#SVGID_64_)" fill="#FFFAFC" d="M30.948,59.102c0,0,1.638,0.297,1.92,0.949
						c0.283,0.652-0.131,0.957-0.131,0.957l-0.477-0.065c0,0,0.265-0.304,0.035-0.797c-0.253-0.543-1.673-1.022-1.673-1.022
						L30.948,59.102z"/>
				</g>
			</g>
		</g>
		<path fill="none" stroke="#1D2935" stroke-width="2.5" stroke-linecap="round" stroke-miterlimit="10" d="M28.321,44.452
			c0.033,0.649,0.023,1.301-0.027,1.95c-0.032,0.414-0.089,0.843-0.318,1.188c-0.238,0.357-0.639,0.58-1.053,0.688
			c-0.508,0.131-1.073,0.099-1.522-0.175c-0.446-0.272-0.746-0.808-0.663-1.326"/>
		<path fill="#1D2935" d="M28.358,44.626c0,0-0.765,3.158-0.6,4.434c0.165,1.275,0.832,1.914,1.527,1.247
			c0.695-0.666,0-4.55-0.291-5.304C28.706,44.25,28.358,44.626,28.358,44.626"/>
		
			<line fill="none" stroke="#1D2935" stroke-width="2" stroke-linecap="round" stroke-miterlimit="10" x1="28.793" y1="50.046" x2="28.793" y2="53.813"/>
		<path fill="none" stroke="#1D2935" stroke-width="2" stroke-linecap="round" stroke-miterlimit="10" d="M28.769,56.942
			c-0.588-0.674-0.702-1.389-0.793-2.188c-0.12-1.032,1.521-1.228,1.51-0.119c-0.009,0.892-0.202,1.605-0.695,2.347"/>
		<g opacity="0.6">
			<g>
				<g>
					<defs>
						<rect id="SVGID_65_" x="54.515" y="70.927" width="0.914" height="1.967"/>
					</defs>
					<clipPath id="SVGID_66_">
						<use xlink:href="#SVGID_65_"  overflow="visible"/>
					</clipPath>
					<path clip-path="url(#SVGID_66_)" fill="#FFFAFC" d="M55.429,72.895c0,0-0.914-0.293-0.914-0.963
						c0-0.574,0.869-1.004,0.869-1.004s-0.348,0.586-0.348,1.004C55.036,72.458,55.429,72.895,55.429,72.895"/>
				</g>
			</g>
		</g>
		<g opacity="0.6">
			<g>
				<g>
					<defs>
						<rect id="SVGID_67_" x="55.563" y="66.442" width="0.26" height="4.209"/>
					</defs>
					<clipPath id="SVGID_68_">
						<use xlink:href="#SVGID_67_"  overflow="visible"/>
					</clipPath>
					<polygon clip-path="url(#SVGID_68_)" fill="#FFFAFC" points="55.659,70.651 55.588,70.645 55.563,66.442 55.823,66.482 					
						"/>
				</g>
			</g>
		</g>
		<g opacity="0.6">
			<g>
				<g>
					<defs>
						<rect id="SVGID_69_" x="54.659" y="65.022" width="1.029" height="1.231"/>
					</defs>
					<clipPath id="SVGID_70_">
						<use xlink:href="#SVGID_69_"  overflow="visible"/>
					</clipPath>
					<path clip-path="url(#SVGID_70_)" fill="#FFFAFC" d="M55.007,65.022c0,0-0.333,0.217-0.348,0.478
						c-0.016,0.261,0.195,0.479,0.428,0.587c0.232,0.109,0.602,0.167,0.602,0.167s-0.58-0.362-0.672-0.703
						C54.92,65.211,55.007,65.022,55.007,65.022"/>
				</g>
			</g>
		</g>
		<g opacity="0.6">
			<g>
				<g>
					<defs>
						<rect id="SVGID_71_" x="54.659" y="63.732" width="1.027" height="1.232"/>
					</defs>
					<clipPath id="SVGID_72_">
						<use xlink:href="#SVGID_71_"  overflow="visible"/>
					</clipPath>
					<path clip-path="url(#SVGID_72_)" fill="#FFFAFC" d="M55.007,63.732c0,0-0.333,0.217-0.348,0.478
						c-0.016,0.261,0.195,0.478,0.428,0.587c0.232,0.108,0.602,0.167,0.602,0.167s-0.58-0.362-0.672-0.703
						C54.92,63.921,55.007,63.732,55.007,63.732"/>
				</g>
			</g>
		</g>
		<g opacity="0.6">
			<g>
				<g>
					<defs>
						<rect id="SVGID_73_" x="54.659" y="62.305" width="1.027" height="1.231"/>
					</defs>
					<clipPath id="SVGID_74_">
						<use xlink:href="#SVGID_73_"  overflow="visible"/>
					</clipPath>
					<path clip-path="url(#SVGID_74_)" fill="#FFFAFC" d="M55.007,62.305c0,0-0.333,0.217-0.348,0.478
						c-0.016,0.261,0.195,0.478,0.428,0.587c0.232,0.108,0.602,0.167,0.602,0.167s-0.58-0.362-0.672-0.702
						C54.92,62.494,55.007,62.305,55.007,62.305"/>
				</g>
			</g>
		</g>
		<g opacity="0.6">
			<g>
				<g>
					<defs>
						<rect id="SVGID_75_" x="55.56" y="36.625" width="0.183" height="25.39"/>
					</defs>
					<clipPath id="SVGID_76_">
						<use xlink:href="#SVGID_75_"  overflow="visible"/>
					</clipPath>
					<polygon clip-path="url(#SVGID_76_)" fill="#FFFAFC" points="55.688,62.015 55.56,62.015 55.56,36.626 55.74,36.625 					"/>
				</g>
			</g>
		</g>
		<g opacity="0.6">
			<g>
				<g>
					<defs>
						<rect id="SVGID_77_" x="55.086" y="35.04" width="0.196" height="1.565"/>
					</defs>
					<clipPath id="SVGID_78_">
						<use xlink:href="#SVGID_77_"  overflow="visible"/>
					</clipPath>
					<polygon clip-path="url(#SVGID_78_)" fill="#FFFAFC" points="55.199,36.605 55.092,36.605 55.087,35.048 55.282,35.04 					"/>
				</g>
			</g>
		</g>
		<g opacity="0.6">
			<g>
				<g>
					<defs>
						<rect id="SVGID_79_" x="55.079" y="31.845" width="1.064" height="2.746"/>
					</defs>
					<clipPath id="SVGID_80_">
						<use xlink:href="#SVGID_79_"  overflow="visible"/>
					</clipPath>
					<path clip-path="url(#SVGID_80_)" fill="#FFFAFC" d="M55.079,31.845c0,0,0.652,0.761,0.826,1.152
						c0.175,0.391,0.195,1.594,0.195,1.594s0.088-1.221,0.015-1.55C56.028,32.649,55.405,32.139,55.079,31.845"/>
				</g>
			</g>
		</g>
		<g opacity="0.6">
			<g>
				<g>
					<defs>
						<rect id="SVGID_81_" x="52.17" y="20.107" width="3.765" height="9.863"/>
					</defs>
					<clipPath id="SVGID_82_">
						<use xlink:href="#SVGID_81_"  overflow="visible"/>
					</clipPath>
					<path clip-path="url(#SVGID_82_)" fill="#FFFAFC" d="M55.874,20.107c0,0-0.009,1.479-0.023,1.816
						c-0.021,0.549-0.141,0.761-0.314,0.978c-0.098,0.125-0.395,0.337-0.629,0.498c-0.186,0.104-0.399,0.219-0.652,0.346
						c-0.627,0.313-1.324,0.602-1.805,1.775c-0.479,1.173-0.385,2.935,0.609,4.108c0.088,0.105,0.18,0.222,0.272,0.342
						c-0.456-1.414-0.616-2.535-0.164-3.994c0.284-0.917,1.015-1.749,1.601-2.302c0.021-0.015,0.041-0.029,0.062-0.045
						c0.369-0.272,0.61-0.479,0.769-0.65c0.002,0,0.004-0.002,0.004-0.002l-0.002,0.002c0.315-0.339,0.308-0.524,0.328-0.742
						C55.959,21.912,55.874,20.107,55.874,20.107"/>
				</g>
			</g>
		</g>
		<g opacity="0.6">
			<g>
				<g>
					<defs>
						<rect id="SVGID_83_" x="54.603" y="16.782" width="1.305" height="2.587"/>
					</defs>
					<clipPath id="SVGID_84_">
						<use xlink:href="#SVGID_83_"  overflow="visible"/>
					</clipPath>
					<path clip-path="url(#SVGID_84_)" fill="#FFFAFC" d="M55.905,16.782c0,0-1.305,0.283-1.305,1.282s1.217,1.304,1.217,1.304
						s-0.891-0.479-0.912-1.347C54.888,17.26,55.905,16.782,55.905,16.782"/>
				</g>
			</g>
		</g>
		<line fill="none" stroke="#FFF188" stroke-miterlimit="10" x1="17.151" y1="71.955" x2="11.419" y2="74.347"/>
		<line fill="none" stroke="#FFF188" stroke-miterlimit="10" x1="22.592" y1="79.895" x2="20.75" y2="84.197"/>
		<line fill="none" stroke="#FFF188" stroke-miterlimit="10" x1="19.678" y1="76.48" x2="14.52" y2="79.715"/>
		<line fill="none" stroke="#FFF188" stroke-miterlimit="10" x1="44.53" y1="74.251" x2="40.078" y2="71.311"/>
		<line fill="none" stroke="#FFF188" stroke-miterlimit="10" x1="40.61" y1="80.205" x2="36.573" y2="76.962"/>
		<line fill="none" stroke="#FFF188" stroke-miterlimit="10" x1="32.739" y1="84.328" x2="31.596" y2="79.142"/>
	</g>
	<g id="下方圖片">
	</g>
	<g id="下方文字">
	</g>
</g>
<g id="文字說明">
</g>
<g id="頁面一_x28_白天_x29_" display="none">
	<g id="底圖_拷貝" display="inline">
	</g>
	<g id="標題_拷貝" display="inline">
	</g>
	<g id="小人_拷貝" display="inline">
	</g>
	<g id="組_拷貝" display="inline">
	</g>
	<g id="下方圖片_拷貝" display="inline">
	</g>
	<g id="下方文字_拷貝" display="inline">
	</g>
</g>
<g id="圖層_3" display="none">
</g>
<g>
	<g>
		<g>
			<path d="M20.676,107.332c0.483-0.076,1.092-0.153,1.569-0.328c0.56-0.238,1.181-0.456,1.704-0.744
				c0.013,0.024-0.013,0.083,0.038,0.073c0.197-0.057,0.225-0.01,0.251,0.038c0.014,0.024-0.136,0.071-0.077,0.071
				c-0.137,0.071-0.36,0.203-0.21,0.155c0.058,0,0.229-0.119,0.295-0.107c0.065,0.012-0.008,0.096,0.059,0.107
				c0.047-0.026,0.143-0.07,0.187-0.101c0.059-0.006-0.004,0.1,0.041,0.07c0.15-0.066,0.326-0.198,0.506-0.318
				c0.015,0.021,0.079,0.013-0.004,0.084c-0.787,0.573-1.657,0.954-2.563,1.248c-0.911,0.265-1.866,0.481-2.883,0.281
				c-0.226-0.046-0.038-0.073,0.135-0.091c-0.058,0.006-0.05-0.034-0.107-0.029c0.009-0.04,0.132-0.091,0.345-0.077l-0.159-0.021
				c-0.051-0.021,0.007-0.041,0.011-0.067c0.052,0.007,0.104,0.014,0.105,0c0.002-0.014,0.005-0.041,0.007-0.054
				c-0.051-0.007-0.152-0.02-0.202-0.027c0.05,0.007,0.101,0.013,0.104,0c0.002-0.014,0.006-0.041,0.009-0.054
				c0.1-0.001,0.244,0.049,0.345,0.044l0.002-0.041c-0.098-0.023-0.243-0.032-0.341-0.044c0.051-0.007,0.053-0.021,0.057-0.047
				c0.144,0.004,0.282,0.076,0.435,0.017l-0.148,0.006C20.283,107.307,20.527,107.351,20.676,107.332z"/>
		</g>
	</g>
</g>
<g>
	<g>
		<g>
			<path d="M22.847,110.242c-0.246,1.205-0.641,2.639-1.291,3.794c-0.121,0.17-0.224,0.353-0.46,0.501
				c-0.116,0.103-0.257,0.103-0.356,0.134c-0.111,0.027-0.224,0.054-0.344,0.041c-0.479,0.015-0.93-0.226-1.238-0.517
				c-0.645-0.587-0.988-1.331-1.282-2.03c0.024-0.009,0.111,0.092,0.076-0.03c-0.14-0.486-0.082-0.503-0.031-0.521
				c0.021-0.008,0.127,0.349,0.109,0.224c0.121,0.352,0.397,0.906,0.269,0.557c-0.03-0.122-0.236-0.569-0.235-0.7
				c-0.004-0.128,0.12,0.087,0.116-0.041c-0.038-0.115-0.113-0.346-0.151-0.461c-0.007-0.123,0.113,0.092,0.079-0.023
				c-0.075-0.352-0.212-0.818-0.272-1.281c0.028-0.007,0.037-0.121,0.084,0.106c0.173,1.005,0.523,2.041,1.043,2.922
				c0.263,0.434,0.593,0.837,0.981,1.04c0.096,0.058,0.199,0.066,0.296,0.107c0.102-0.008,0.2,0.025,0.303-0.001
				c0.104-0.035,0.217-0.024,0.241-0.078c0.061-0.025,0.131-0.126,0.2-0.207c0.528-0.803,0.821-1.898,1.096-2.915
				c0.263-1.035,0.489-2.093,0.646-3.129c0.063-0.456,0.089-0.116,0.074,0.252c0.003-0.121,0.045-0.116,0.047-0.237
				c0.041,0.004,0.079,0.254,0.01,0.739l0.06-0.362c0.032-0.119,0.041,0.006,0.067,0.01c-0.02,0.121-0.04,0.242-0.026,0.244
				c0.014,0.002,0.04,0.007,0.054,0.009c0.019-0.122,0.057-0.365,0.076-0.486c-0.019,0.122-0.035,0.244-0.022,0.246
				c0.014,0.002,0.04,0.006,0.054,0.009c-0.025,0.246-0.116,0.605-0.148,0.85l0.04,0.007c0.059-0.24,0.11-0.606,0.148-0.851
				c-0.007,0.124,0.007,0.126,0.034,0.13c-0.046,0.37-0.155,0.726-0.188,1.096l0.071-0.363
				C23.095,109.284,22.919,109.879,22.847,110.242z"/>
		</g>
	</g>
</g>
<g>
	<g>
		<g>
			<path d="M26.65,111.289c0.604,0.232,1.408,0.24,2.049-0.112c0.644-0.351,1.011-1.054,1.021-1.731
				c0.024-0.796-0.146-1.77-0.801-2.089c-0.664-0.318-1.579-0.002-2.209,0.466c-0.017-0.021,0.073-0.13-0.049-0.065
				c-0.442,0.322-0.473,0.305-0.513,0.267c-0.035-0.032,0.316-0.292,0.188-0.219c0.303-0.316,0.964-0.641,0.559-0.466
				c-0.067,0.029-0.221,0.131-0.375,0.232c-0.145,0.113-0.277,0.24-0.349,0.273c-0.141,0.073,0.055-0.159-0.087-0.086
				c-0.114,0.103-0.303,0.353-0.391,0.48c-0.098,0.127,0.006-0.187-0.069-0.043c-0.084,0.15-0.144,0.257-0.194,0.348
				c-0.054,0.132-0.078,0.291-0.114,0.445c-0.02,0.159,0.018,0.335,0.033,0.505c0.059,0.16,0.145,0.316,0.222,0.472
				c-0.021-0.003,0.038,0.195-0.139-0.124c-0.098-0.178-0.177-0.362-0.177-0.571c-0.04-0.207,0.01-0.396,0.056-0.587
				c0.104-0.375,0.32-0.681,0.555-0.954c0.488-0.526,1.112-0.901,1.818-1.079c0.176-0.045,0.365-0.054,0.547-0.079
				c0.188-0.003,0.382,0.028,0.572,0.047c0.183,0.072,0.381,0.124,0.548,0.229c0.149,0.129,0.34,0.233,0.444,0.397
				c0.102,0.163,0.238,0.321,0.3,0.496l0.172,0.53c0.038,0.355,0.112,0.7,0.08,1.063c0.017,0.711-0.279,1.492-0.842,2.003
				c-0.558,0.519-1.317,0.76-2.051,0.732c-0.729-0.025-1.493-0.32-1.978-0.943c-0.501-0.627-0.52-1.488-0.316-2.149
				c0.169-0.63,0.1-0.131,0.033,0.335c0.022-0.157,0.063-0.148,0.086-0.305c0.057,0.014-0.025,0.32,0.02,0.937l0.005-0.46
				c0.022-0.15,0.038,0.004,0.067,0.007c-0.001,0.149-0.003,0.299,0.011,0.298s0.041-0.001,0.055-0.001
				c-0.007-0.146,0.004-0.435,0.06-0.574c-0.036,0.141-0.066,0.284-0.043,0.286c0.014,0.001,0.04,0.004,0.054,0.005
				c0.007,0.141,0,0.316-0.005,0.492c0.042,0.167,0.074,0.341,0.122,0.47l0.038-0.016c-0.052-0.209-0.077-0.311-0.114-0.46
				c0-0.17,0-0.352,0-0.482c0.013,0.14,0.026,0.139,0.054,0.141c-0.037,0.405,0.076,0.805,0.313,1.113l-0.19-0.337
				c0.111,0.089,0.173,0.309,0.361,0.465C26.233,111.082,26.475,111.212,26.65,111.289z"/>
		</g>
	</g>
</g>
<g>
	<g>
		<g>
			<path d="M33.738,108.052c0.114,0.417,0.369,0.921,0.698,1.167c0.32,0.264,0.758,0.088,1.087-0.29
				c0.64-0.763,0.915-1.955,0.607-2.883l0.515-0.137c0.127,0.616,0.288,1.227,0.431,1.81c0.378,1.542,0.748,3.178,0.747,4.888
				c-0.015,0.845-0.104,1.75-0.604,2.546c-0.529,0.805-1.424,1.226-2.337,1.222c0.003-0.027,0.295-0.075,0.002-0.082
				c-0.586-0.043-0.841-0.205-0.965-0.265c-0.117-0.084-0.104-0.108-0.094-0.133c0,0,0.777,0.259,0.521,0.158
				c0.4,0.104,0.952,0.059,1.277-0.042c0.313-0.132,0.432-0.19,0.054-0.054c-0.13,0.026-0.456,0.118-0.79,0.104
				c-0.334-0.002-0.657-0.099-0.772-0.166c-0.233-0.115,0.271,0,0.04-0.116c-0.243-0.068-0.688-0.321-0.874-0.497
				c-0.173-0.183,0.242,0.099,0.052-0.063c-0.552-0.46-1.188-1.384-1.082-2.335c0.039-0.013,0.064-0.217,0.058,0.233
				c0.025,1.159,1.02,2.315,2.166,2.574c0.578,0.119,1.18-0.015,1.679-0.356c0.486-0.317,0.76-0.866,0.892-1.478
				c0.261-1.234,0.086-2.588-0.131-3.889c-0.224-1.317-0.574-2.598-0.865-3.944l0.658-0.175c0.33,1.087,0.116,2.226-0.466,3.152
				c-0.3,0.435-0.733,0.953-1.472,0.957c-0.361,0.012-0.67-0.199-0.885-0.403c-0.204-0.216-0.377-0.458-0.479-0.702
				c-0.26-0.458-0.394-1.085-0.29-1.638c0.092-0.562,0.355-1.068,0.7-1.486c0.354-0.411,0.786-0.754,1.316-0.962
				c0.263-0.104,0.568-0.16,0.896-0.116c0.334,0.063,0.673,0.31,0.791,0.62c0.212,0.647,0.129,0.701,0.101,0.522
				c-0.036-0.096-0.054-0.258-0.146-0.446c-0.06-0.092-0.112-0.198-0.193-0.288c-0.102-0.074-0.199-0.174-0.318-0.216
				c0.291,0.174,0.287,0.208,0.448,0.482c-0.041,0.024-0.068-0.159-0.354-0.323c-0.267-0.177-0.752-0.192-1.243,0.046
				c0.244-0.123,0.526-0.177,0.812-0.16c0.274,0.083-0.008,0.023-0.008,0.068c-0.272-0.027-0.524,0.073-0.524,0.073
				c0.004,0.013,0.011,0.039,0.015,0.052c0.237-0.108,0.788-0.084,0.936,0.152c-0.17-0.186-0.441-0.209-0.436-0.195
				c-0.002,0.014-0.005,0.041-0.007,0.054c-0.476-0.05-1.195,0.334-1.529,0.72l0.028,0.029c0.345-0.359,1.036-0.769,1.496-0.708
				c-0.227,0.015-0.222,0.023-0.219,0.054c-0.671,0.127-1.336,0.638-1.685,1.276c0.131-0.205,0.278-0.402,0.455-0.574
				c-0.152,0.193-0.422,0.528-0.602,0.938C33.651,107.235,33.642,107.719,33.738,108.052z"/>
		</g>
	</g>
</g>
</svg>
